{"glyphs":{"\u0000":{"ha":0,"x_min":0,"x_max":0,"o":""},"\r":{"ha":314,"x_min":0,"x_max":0,"o":""}," ":{"ha":314,"x_min":0,"x_max":0,"o":""},"D":{"ha":828,"x_min":19,"x_max":733,"o":"m 511 799 q 601 762 564 799 q 638 672 638 725 l 638 222 q 601 133 638 169 q 511 96 564 96 l 257 96 l 257 672 q 294 762 257 725 q 383 799 331 799 l 511 799 m 592 672 q 568 730 592 706 q 511 754 544 754 l 443 754 l 383 754 q 326 730 350 754 q 301 672 301 706 l 301 663 l 301 653 l 301 643 l 301 635 l 301 626 l 301 618 l 301 610 l 301 603 l 301 596 l 301 589 l 301 582 l 301 575 l 301 569 l 301 564 l 301 558 l 301 553 l 301 547 l 301 542 l 301 538 l 301 533 l 301 528 l 301 524 l 301 519 l 301 515 l 301 511 l 301 508 l 301 504 l 301 500 l 301 497 l 301 493 l 301 489 l 301 486 l 301 482 l 301 478 l 301 475 l 301 471 l 301 467 l 301 464 l 301 460 l 301 456 l 301 451 l 301 447 l 301 443 l 301 439 l 301 433 l 301 429 l 301 424 l 301 419 l 301 414 l 301 408 l 301 403 l 301 396 l 301 390 l 301 383 l 301 376 l 301 369 l 301 361 l 301 354 l 301 346 l 301 338 l 301 328 l 301 318 l 301 308 l 301 299 l 301 283 l 301 142 l 511 142 q 568 165 544 142 q 592 222 592 189 l 592 672 m 511 896 q 597 878 557 896 q 668 830 638 860 q 716 759 699 800 q 733 672 733 718 l 733 222 q 716 136 733 176 q 668 65 699 96 q 597 17 638 35 q 511 0 557 0 l 286 0 q 197 36 233 0 q 161 125 161 72 l 161 283 l 161 631 l 161 661 l 161 672 q 138 729 161 706 q 81 753 114 753 l 19 753 l 19 896 l 79 896 q 163 879 124 896 q 231 835 201 863 q 300 879 261 863 q 383 896 339 896 l 406 896 l 511 896 m 689 672 q 675 741 689 708 q 637 798 661 774 q 580 836 613 822 q 511 850 547 850 l 407 850 l 383 850 q 263 801 314 850 l 231 772 l 200 801 q 79 850 149 850 l 64 850 l 64 799 l 81 799 q 169 762 133 799 q 206 672 206 725 l 206 125 q 229 69 206 93 q 286 44 253 44 l 511 44 q 580 58 547 44 q 637 97 613 72 q 675 153 661 121 q 689 222 689 186 l 689 672 z "},"E":{"ha":810,"x_min":8,"x_max":722,"o":"m 219 0 q 170 17 190 0 q 150 60 150 35 l 150 178 l 150 283 l 150 575 l 150 579 l 150 586 l 150 593 l 150 600 l 150 608 l 150 615 l 150 624 l 150 633 l 150 642 l 150 651 l 150 661 l 150 672 q 126 729 150 706 q 69 753 103 753 l 8 753 l 8 896 l 68 896 q 151 879 113 896 q 219 835 190 863 q 289 879 250 863 q 372 896 328 896 l 403 896 l 651 896 q 701 875 681 896 q 722 825 722 854 l 722 754 l 432 754 l 372 754 q 315 730 339 754 q 290 672 290 706 l 290 663 l 290 653 l 290 643 l 290 635 l 290 626 l 290 618 l 290 610 l 290 603 l 290 596 l 290 589 l 290 582 l 290 575 l 290 569 l 290 564 l 290 558 l 290 553 l 290 547 l 290 542 l 290 538 l 290 533 l 290 528 l 290 524 l 290 519 l 290 518 l 651 518 l 651 376 l 290 376 l 290 369 l 290 361 l 290 354 l 290 346 l 290 338 l 290 328 l 290 318 l 290 308 l 290 299 l 290 283 l 290 142 l 722 142 l 722 71 q 701 21 722 42 q 651 0 681 0 l 290 0 l 219 0 m 246 96 l 246 422 l 607 422 l 607 472 l 246 472 l 246 672 q 283 762 246 725 q 372 799 319 799 l 676 799 l 676 825 q 669 843 676 836 q 651 850 663 850 l 372 850 q 251 801 303 850 l 219 772 l 189 801 q 68 850 138 850 l 53 850 l 53 799 l 69 799 q 158 762 122 799 q 194 672 194 725 l 194 60 q 204 49 194 53 q 219 44 214 44 l 651 44 q 669 52 663 44 q 676 71 676 60 l 676 96 l 246 96 z "},"F":{"ha":818,"x_min":15,"x_max":729,"o":"m 226 0 q 177 21 197 0 q 157 71 157 42 l 157 213 l 157 283 l 157 299 l 157 308 l 157 318 l 157 328 l 157 336 l 157 344 l 157 353 l 157 360 l 157 368 l 157 375 l 157 382 l 157 388 l 157 394 l 157 400 l 157 406 l 157 411 l 157 417 l 157 421 l 157 426 l 157 431 l 157 435 l 157 439 l 157 443 l 157 447 l 157 451 l 157 454 l 157 456 l 157 460 l 157 463 l 157 467 l 157 469 l 157 474 l 157 476 l 157 481 l 157 483 l 157 488 l 157 490 l 157 494 l 157 497 l 157 501 l 157 506 l 157 508 l 157 513 l 157 517 l 157 521 l 157 525 l 157 529 l 157 535 l 157 539 l 157 544 l 157 550 l 157 556 l 157 561 l 157 567 l 157 572 l 157 579 l 157 586 l 157 593 l 157 600 l 157 603 l 157 661 l 157 672 q 133 729 157 706 q 76 753 110 753 l 15 753 l 15 896 l 75 896 q 158 879 119 896 q 226 835 197 863 q 296 879 257 863 q 379 896 335 896 l 658 896 q 708 875 688 896 q 729 825 729 854 l 729 754 l 439 754 l 379 754 q 322 730 346 754 q 297 672 297 706 l 297 603 l 297 596 l 297 589 l 297 582 l 297 575 l 297 569 l 297 564 l 297 558 l 297 553 l 297 547 l 297 542 l 297 538 l 297 533 l 297 528 l 297 524 l 297 519 l 297 518 l 575 518 l 575 376 l 297 376 l 297 283 l 297 0 l 226 0 m 253 422 l 529 422 l 529 472 l 253 472 l 253 672 q 290 762 253 725 q 379 799 326 799 l 683 799 l 683 825 q 676 843 683 836 q 658 850 669 850 l 379 850 q 258 801 310 850 l 226 772 l 196 801 q 75 850 144 850 l 60 850 l 60 799 l 76 799 q 165 762 129 799 q 201 672 201 725 l 201 71 q 208 52 201 60 q 226 44 215 44 l 253 44 l 253 422 z "},"G":{"ha":814,"x_min":17,"x_max":731,"o":"m 381 896 l 508 896 q 585 882 549 896 q 650 844 621 868 q 699 787 679 819 q 726 715 719 754 l 576 715 q 547 744 565 733 q 508 754 529 754 l 440 754 l 381 754 q 323 730 347 754 q 299 672 299 706 l 299 663 l 299 653 l 299 643 l 299 635 l 299 626 l 299 618 l 299 610 l 299 603 l 299 596 l 299 589 l 299 582 l 299 575 l 299 569 l 299 564 l 299 558 l 299 553 l 299 547 l 299 542 l 299 538 l 299 533 l 299 528 l 299 524 l 299 519 l 299 515 l 299 513 l 299 508 l 299 504 l 299 500 l 299 497 l 299 493 l 299 489 l 299 486 l 299 482 l 299 478 l 299 475 l 299 471 l 299 467 l 299 464 l 299 460 l 299 456 l 299 451 l 299 447 l 299 443 l 299 439 l 299 433 l 299 429 l 299 424 l 299 419 l 299 414 l 299 408 l 299 403 l 299 396 l 299 390 l 299 383 l 299 376 l 299 369 l 299 361 l 299 354 l 299 346 l 299 338 l 299 328 l 299 318 l 299 308 l 299 299 l 299 283 l 299 142 l 508 142 q 565 165 542 142 q 589 222 589 189 l 589 376 l 415 376 l 415 518 l 731 518 l 731 378 l 731 376 l 731 222 q 713 136 731 176 q 665 65 696 96 q 594 17 635 35 q 508 0 554 0 l 283 0 q 194 37 231 0 q 158 125 158 74 l 158 283 l 158 299 l 158 308 l 158 318 l 158 328 l 158 336 l 158 344 l 158 353 l 158 360 l 158 368 l 158 375 l 158 382 l 158 388 l 158 394 l 158 400 l 158 406 l 158 411 l 158 417 l 158 421 l 158 426 l 158 431 l 158 435 l 158 439 l 158 443 l 158 447 l 158 451 l 158 456 l 158 460 l 158 463 l 158 467 l 158 469 l 158 474 l 158 476 l 158 481 l 158 483 l 158 488 l 158 490 l 158 494 l 158 497 l 158 501 l 158 506 l 158 508 l 158 513 l 158 517 l 158 521 l 158 525 l 158 529 l 158 535 l 158 539 l 158 544 l 158 550 l 158 556 l 158 561 l 158 567 l 158 572 l 158 579 l 158 586 l 158 593 l 158 600 l 158 608 l 158 615 l 158 624 l 158 633 l 158 642 l 158 651 l 158 661 l 158 672 q 135 729 158 706 q 78 753 111 753 l 17 753 l 17 896 l 76 896 q 160 879 121 896 q 228 835 199 863 q 297 879 258 863 q 381 896 336 896 m 61 850 l 61 799 l 78 799 q 167 762 131 799 q 203 672 203 725 l 203 125 q 226 69 203 93 q 283 44 250 44 l 508 44 q 576 58 544 44 q 633 97 608 72 q 671 153 657 121 q 685 222 685 186 l 685 472 l 461 472 l 461 422 l 635 422 l 635 222 q 598 133 635 169 q 508 96 561 96 l 254 96 l 254 672 q 291 762 254 725 q 381 799 328 799 l 508 799 q 599 761 561 799 l 661 761 q 597 826 638 801 q 508 850 557 850 l 381 850 q 315 838 346 850 q 260 801 283 825 l 228 772 l 197 801 q 76 850 146 850 l 61 850 z "},"H":{"ha":815,"x_min":15,"x_max":729,"o":"m 226 0 q 177 21 197 0 q 157 71 157 42 l 157 213 l 157 375 l 157 376 l 157 382 l 157 518 l 157 544 l 157 672 l 157 675 l 156 676 q 143 716 154 699 q 114 744 132 733 q 75 754 94 754 l 15 754 l 15 896 l 17 896 l 18 896 l 19 896 l 21 896 l 22 896 l 24 896 l 25 896 l 26 896 l 28 896 l 29 896 l 31 896 l 33 896 l 35 896 l 36 896 l 39 896 l 40 896 l 43 896 l 44 896 l 47 896 l 49 896 l 51 896 l 54 896 l 57 896 l 60 896 l 63 896 l 65 896 l 68 896 l 72 896 l 75 896 l 81 896 q 83 895 82 896 q 86 894 85 894 l 92 894 l 97 894 l 99 894 q 103 893 101 894 l 108 893 l 110 893 q 112 892 111 893 q 114 892 113 892 l 115 892 q 119 890 118 892 l 125 890 l 125 889 l 131 889 q 135 888 132 888 l 136 886 l 140 886 l 142 885 q 146 883 144 885 l 147 883 q 150 882 149 883 l 153 882 q 156 881 154 881 l 157 879 q 161 878 160 879 l 163 878 l 165 876 l 168 875 l 171 874 l 172 872 l 175 871 l 178 869 l 179 869 l 182 868 l 185 867 l 188 865 l 189 864 l 192 863 l 193 861 q 195 860 194 860 q 197 858 196 860 q 201 856 199 858 q 203 854 203 854 q 206 853 204 854 q 210 850 208 851 q 214 847 211 849 l 215 844 l 218 843 l 219 842 q 222 840 221 840 q 224 839 222 840 q 225 837 225 838 q 226 835 225 836 q 278 763 260 804 q 297 672 297 721 l 297 544 l 297 518 l 588 518 l 588 896 l 658 896 q 708 875 688 896 q 729 825 729 854 l 729 683 l 729 518 l 729 376 l 729 213 l 729 71 q 708 21 729 42 q 658 0 688 0 l 588 0 l 588 376 l 297 376 l 297 375 l 297 0 l 226 0 m 253 422 l 633 422 l 633 44 l 658 44 q 677 52 669 44 q 685 71 685 60 l 685 825 q 677 843 685 836 q 658 850 669 850 l 633 850 l 633 472 l 253 472 l 253 672 q 196 803 253 749 q 194 803 194 803 q 193 804 194 804 q 190 807 190 807 l 188 810 l 185 811 q 182 813 183 813 q 179 815 181 814 l 179 817 q 176 818 178 817 l 175 819 q 172 821 174 819 q 169 822 171 822 l 165 825 l 163 826 l 158 829 l 154 831 l 153 832 l 149 833 l 144 836 l 143 836 q 142 837 142 836 q 140 838 142 838 l 139 838 q 136 839 139 838 l 135 839 q 132 840 133 840 l 131 840 q 128 842 131 842 l 126 842 q 124 843 125 843 q 122 844 122 843 q 119 844 121 844 q 115 846 117 844 l 114 846 l 111 846 l 110 846 q 107 847 108 847 l 106 847 l 103 847 l 101 849 l 97 849 l 93 849 q 91 849 92 849 q 89 850 90 850 l 85 850 l 83 850 l 81 850 l 79 850 l 75 850 l 60 850 l 60 799 l 75 799 q 136 783 110 799 q 182 740 164 768 q 201 678 200 713 l 201 675 l 201 672 l 201 71 q 208 52 201 60 q 226 44 215 44 l 253 44 l 253 422 z "},"I":{"ha":382,"x_min":-3,"x_max":281,"o":"m 57 893 l 63 893 l 64 893 q 66 892 65 893 q 68 892 67 892 l 69 892 l 75 892 l 79 892 l 81 892 q 86 890 83 892 l 90 890 l 92 890 q 94 890 93 890 q 96 889 94 889 l 97 889 q 101 888 100 889 l 103 888 l 107 888 l 108 886 l 113 886 q 118 885 115 885 l 118 883 l 122 883 l 124 882 q 128 881 126 882 l 129 881 q 131 880 131 881 q 133 879 132 879 l 135 879 q 139 878 136 878 l 140 876 q 143 875 142 876 l 144 875 l 149 874 l 150 872 l 153 871 l 154 869 l 157 868 l 160 867 l 163 867 l 165 865 l 167 864 l 169 863 l 171 861 l 174 860 l 175 858 q 177 857 176 857 q 179 856 178 857 q 183 853 181 856 l 185 853 q 188 850 185 853 q 192 847 190 849 q 196 844 193 846 l 199 842 l 200 840 l 201 839 q 203 838 203 838 q 206 836 204 838 l 210 832 q 261 760 242 801 q 281 669 281 718 l 281 372 l 281 -3 l 210 -3 q 160 18 181 -3 q 139 68 139 39 l 139 210 l 139 415 l 139 557 l 139 669 l 139 672 l 139 674 q 96 742 136 719 q 57 751 76 751 l -3 751 l -3 893 l -1 893 l 0 893 l 1 893 l 3 893 l 4 893 l 6 893 l 7 893 l 8 893 l 10 893 l 13 893 l 14 893 l 15 893 l 17 893 l 19 893 l 21 893 l 24 893 l 25 893 l 28 893 l 29 893 l 32 893 l 35 893 l 36 893 l 39 893 l 42 893 l 44 893 l 47 893 l 51 893 l 54 893 l 57 893 m 43 847 l 43 796 l 57 796 q 118 781 93 796 q 165 738 147 765 q 185 676 182 710 l 185 674 l 185 669 l 185 68 q 192 49 185 57 q 210 42 199 42 l 235 42 l 235 669 q 178 800 235 746 q 175 801 176 801 q 172 804 175 804 l 171 806 l 168 808 q 165 810 165 810 q 161 813 164 811 l 161 814 q 160 815 160 814 q 158 815 160 815 l 157 817 q 154 818 156 817 q 151 819 153 819 l 147 822 l 143 825 l 139 826 l 138 828 l 133 831 l 129 832 l 128 833 l 125 833 l 124 835 l 122 835 q 119 836 119 836 l 117 836 q 114 838 117 838 q 111 839 111 839 l 110 839 q 107 840 107 840 l 106 840 q 103 841 104 840 q 101 842 103 842 q 97 843 99 842 l 93 843 q 89 844 92 844 l 88 844 l 85 844 q 79 846 83 846 l 75 846 q 72 847 72 846 l 71 847 l 67 847 l 64 847 l 63 847 l 57 847 l 43 847 z "},"J":{"ha":615,"x_min":-1,"x_max":513,"o":"m 513 479 l 513 375 l 513 125 q 476 36 513 72 q 386 0 439 0 l 221 0 q 135 17 175 0 q 64 65 94 35 q 16 136 33 96 q -1 222 -1 176 l -1 376 l 140 376 l 140 222 q 164 165 140 189 q 221 142 188 142 l 371 142 l 371 375 l 371 479 l 371 672 l 371 675 l 371 676 q 328 744 368 722 q 289 754 308 754 l 229 754 l 229 896 l 231 896 l 232 896 l 233 896 l 235 896 l 236 896 l 238 896 l 239 896 l 240 896 l 243 896 l 244 896 l 246 896 l 247 896 l 249 896 l 251 896 l 253 896 l 256 896 l 257 896 l 260 896 l 261 896 l 264 896 l 267 896 l 268 896 l 271 896 l 274 896 l 276 896 l 281 896 l 283 896 l 286 896 l 289 896 l 296 896 q 298 895 297 896 q 301 894 299 894 l 307 894 l 313 894 q 318 893 315 894 l 324 893 q 326 892 325 893 q 328 892 326 892 l 329 892 q 333 890 332 892 l 335 890 l 339 890 l 340 889 l 344 889 l 346 889 q 350 888 347 888 l 351 886 l 356 886 l 357 885 q 360 883 360 885 l 361 883 q 363 883 363 883 q 365 882 364 882 l 367 882 q 371 881 368 881 l 372 879 q 375 878 374 879 l 376 878 l 381 876 l 382 875 l 385 874 l 386 872 l 389 871 l 392 869 l 394 869 l 397 868 l 399 867 l 401 865 l 403 864 l 407 863 l 408 861 q 411 858 408 861 q 415 856 413 858 l 417 856 l 419 853 q 424 850 422 851 q 428 847 425 849 l 431 844 l 432 843 l 433 842 q 435 840 435 840 q 438 839 436 840 l 442 835 q 493 763 474 804 q 513 672 513 721 l 513 479 m 275 850 l 275 799 l 289 799 q 350 783 325 799 q 397 740 379 768 q 417 678 414 713 l 417 675 l 417 672 l 417 96 l 221 96 q 131 133 168 96 q 94 222 94 169 l 94 332 l 44 332 l 44 222 q 58 153 44 186 q 96 97 72 121 q 152 58 119 72 q 221 44 185 44 l 386 44 q 443 69 419 44 q 467 125 467 93 l 467 672 q 410 803 467 749 q 407 804 408 804 q 404 807 407 807 l 403 808 l 400 811 q 397 813 397 813 q 393 815 396 814 l 393 817 q 392 817 392 817 q 390 818 392 818 l 389 819 q 386 821 388 819 q 383 822 385 822 l 383 824 l 379 825 l 376 826 l 372 829 l 369 831 l 365 832 l 361 835 l 360 836 l 357 836 l 356 838 l 354 838 q 351 839 351 839 l 350 839 q 346 840 349 840 q 343 842 343 842 l 342 842 q 339 843 339 843 l 338 843 q 335 844 336 843 q 333 844 335 844 q 331 846 331 844 l 329 846 l 325 846 q 321 847 324 847 l 317 847 q 311 849 315 849 l 307 849 q 304 850 304 849 l 303 850 l 299 850 l 296 850 l 294 850 l 289 850 l 275 850 z "},"K":{"ha":806,"x_min":0,"x_max":714,"o":"m 211 0 q 162 21 182 0 q 142 71 142 42 l 142 126 l 142 213 l 142 356 l 142 375 l 142 460 l 142 601 l 142 672 l 142 675 l 140 676 q 128 716 139 699 q 99 744 117 733 q 60 754 79 754 l 0 754 l 0 896 l 1 896 l 3 896 l 4 896 l 6 896 l 7 896 l 8 896 l 10 896 l 11 896 l 13 896 l 14 896 l 15 896 l 18 896 l 19 896 l 21 896 l 24 896 l 25 896 l 28 896 l 29 896 l 32 896 l 33 896 l 36 896 l 39 896 l 42 896 l 44 896 l 47 896 l 50 896 l 53 896 l 57 896 l 60 896 l 65 896 q 68 895 67 896 q 71 894 69 894 l 76 894 l 82 894 l 83 894 q 88 893 86 894 l 93 893 l 94 893 q 97 892 96 893 q 99 892 97 892 l 100 892 q 104 890 103 892 l 110 890 l 110 889 l 115 889 q 119 888 117 888 l 121 886 l 125 886 l 126 885 q 131 883 129 885 l 132 883 q 135 882 133 883 l 138 882 q 140 881 139 881 l 142 879 q 146 878 144 879 l 147 878 l 150 876 l 153 875 l 156 874 l 157 872 l 160 871 l 163 869 l 164 869 l 167 868 l 169 867 l 172 865 l 174 864 l 176 863 l 178 861 q 180 860 179 860 q 182 858 181 860 q 186 856 183 858 q 188 854 188 854 q 190 853 189 854 q 194 850 193 851 q 199 847 196 849 l 200 844 l 203 843 l 204 842 q 206 840 206 840 q 208 839 207 840 q 210 837 210 838 q 211 835 210 836 q 263 763 244 804 q 282 672 282 721 l 282 547 l 540 896 l 714 896 l 381 447 l 714 0 l 540 0 l 294 332 l 282 315 l 282 0 l 211 0 m 238 331 l 294 408 l 564 44 l 624 44 l 324 447 l 624 850 l 564 850 l 238 410 l 238 672 q 181 803 238 749 q 179 803 179 803 q 178 804 179 804 l 175 807 l 172 810 l 169 811 q 167 813 168 813 q 164 815 165 814 l 164 817 q 161 818 163 817 l 160 819 q 157 821 158 819 q 154 822 156 822 l 149 825 l 146 828 l 142 829 l 139 831 l 136 833 l 132 835 l 129 836 l 128 836 q 126 837 126 836 q 125 838 126 838 l 124 838 q 121 839 124 838 l 119 839 q 117 840 118 840 l 115 840 q 113 842 115 842 l 111 842 q 108 843 110 843 q 106 844 107 843 q 104 844 106 844 l 103 844 q 100 846 101 844 l 99 846 l 96 846 l 94 846 q 92 847 93 847 l 90 847 l 88 847 l 86 847 q 82 849 85 849 l 78 849 q 74 850 75 849 l 69 850 l 68 850 l 65 850 l 64 850 l 60 850 l 44 850 l 44 799 l 60 799 q 121 783 94 799 q 167 740 149 768 q 186 678 185 713 l 186 675 l 186 672 l 186 71 q 193 52 186 60 q 211 44 200 44 l 238 44 l 238 331 z "},"L":{"ha":726,"x_min":43,"x_max":757,"o":"m 254 1 q 205 22 225 1 q 185 72 185 43 l 185 214 l 185 376 l 185 421 l 185 674 l 185 676 l 183 678 q 171 717 182 700 q 142 746 160 735 q 103 756 122 756 l 43 756 l 43 897 l 44 897 l 46 897 l 47 897 l 49 897 l 50 897 l 51 897 l 53 897 l 54 897 l 56 897 l 57 897 l 58 897 l 61 897 l 63 897 l 64 897 l 67 897 l 68 897 l 71 897 l 72 897 l 75 897 l 76 897 l 79 897 l 82 897 l 85 897 l 88 897 l 90 897 l 93 897 l 96 897 l 100 897 l 103 897 l 108 897 q 111 897 110 897 q 114 896 113 896 l 119 896 l 125 896 l 126 896 q 131 894 129 896 l 136 894 l 138 894 q 140 894 139 894 q 142 893 140 893 l 143 893 q 147 892 146 893 l 153 892 l 153 890 l 158 890 q 163 889 160 889 l 164 888 l 168 888 l 169 886 q 174 885 172 886 l 175 885 q 178 883 176 885 l 181 883 q 183 882 182 882 l 185 881 q 189 879 188 881 l 190 879 l 193 878 l 196 876 l 199 875 l 200 874 l 203 872 l 206 871 l 207 871 l 210 869 l 213 868 l 215 867 l 217 865 l 219 864 l 221 863 q 223 861 222 861 q 225 860 224 861 q 229 857 226 860 q 231 856 231 856 q 233 854 232 856 q 238 851 236 853 q 242 849 239 850 l 243 846 l 246 844 l 247 843 q 249 842 249 842 q 251 840 250 842 q 253 838 253 839 q 254 836 253 838 q 306 764 288 806 q 325 674 325 722 l 325 421 l 325 376 l 325 143 l 757 143 l 757 72 q 736 22 757 43 q 686 1 715 1 l 325 1 l 271 1 l 254 1 m 281 97 l 281 674 q 224 804 281 750 q 222 805 222 804 q 221 806 222 806 q 218 808 218 808 l 215 811 l 213 813 q 210 815 211 814 q 207 817 208 815 l 207 818 q 204 819 206 818 l 203 821 q 200 822 201 821 q 197 824 199 824 l 192 826 l 189 829 l 186 831 l 182 832 l 179 833 l 175 836 l 172 838 l 171 838 q 169 838 169 838 q 168 839 169 839 l 167 839 q 164 840 167 839 l 163 840 q 160 842 161 842 l 158 842 q 156 843 158 843 l 154 843 q 151 844 153 844 q 149 845 150 844 q 147 846 149 846 q 143 847 144 846 l 142 847 l 139 847 l 138 847 q 135 849 136 849 l 133 849 l 131 849 l 129 849 q 125 850 128 850 l 121 850 q 117 851 118 850 l 113 851 l 111 851 l 108 851 l 107 851 l 103 851 l 88 851 l 88 800 l 103 800 q 164 785 138 800 q 210 742 192 769 q 229 679 228 714 l 229 676 l 229 674 l 229 72 q 236 53 229 61 q 254 46 243 46 l 686 46 q 705 53 697 46 q 713 72 713 61 l 713 97 l 281 97 z "},"M":{"ha":1253,"x_min":7,"x_max":1154,"o":"m 219 0 q 169 21 190 0 q 149 71 149 42 l 149 125 l 149 142 l 149 157 l 149 213 l 149 357 l 149 364 l 149 478 l 149 661 l 149 672 q 125 729 149 706 q 68 753 101 753 l 7 753 l 7 896 l 68 896 q 151 879 113 896 q 219 835 189 863 q 289 879 250 863 q 372 896 328 896 l 499 896 l 500 896 l 504 896 l 506 896 q 508 895 507 896 q 510 894 508 894 l 511 894 l 515 894 l 517 894 l 521 894 l 522 894 q 526 893 525 894 l 528 893 l 532 893 l 533 893 l 538 892 l 539 892 l 543 892 l 544 890 l 547 890 l 551 889 l 553 889 l 556 888 l 558 888 q 561 886 560 888 l 564 886 q 567 885 564 886 l 569 885 l 572 883 l 574 882 q 578 881 576 882 l 579 881 l 582 879 l 585 878 l 588 878 l 589 876 q 592 875 590 875 q 594 874 593 875 l 603 869 q 606 868 604 868 q 608 867 607 868 q 610 865 610 865 q 613 864 611 865 q 651 835 631 853 q 720 879 682 863 q 803 896 758 896 l 931 896 q 1017 878 976 896 q 1088 830 1058 860 q 1136 759 1118 800 q 1154 672 1154 718 l 1154 324 l 1154 222 l 1154 213 l 1154 125 l 1154 71 q 1133 21 1154 42 q 1083 0 1113 0 l 1028 0 l 1013 0 l 1013 15 l 1013 222 l 1013 324 l 1013 661 l 1013 672 q 988 730 1013 706 q 931 754 964 754 l 864 754 l 803 754 q 746 730 769 754 q 722 672 722 706 l 722 478 l 722 364 l 722 357 l 722 142 l 722 125 l 722 71 l 722 0 l 706 0 l 651 0 l 596 0 l 581 0 l 581 15 l 581 71 l 581 125 l 581 142 l 581 157 l 581 213 l 581 222 l 581 324 l 581 357 l 581 364 l 581 478 l 581 661 l 581 672 l 581 675 l 581 676 q 568 716 579 699 q 539 743 557 733 q 500 753 521 753 l 439 753 l 439 754 l 432 754 l 372 754 q 315 730 339 754 q 290 672 290 706 l 290 478 l 290 364 l 290 357 l 290 142 l 290 0 l 275 0 l 219 0 m 244 672 q 254 722 244 699 q 281 762 264 744 q 322 789 299 779 q 372 799 346 799 l 439 799 l 485 800 l 485 799 l 500 799 q 560 783 532 799 q 606 740 589 768 q 625 679 624 713 l 626 675 l 626 672 l 626 44 l 676 44 l 676 672 q 713 762 676 725 q 803 799 750 799 l 931 799 q 1020 762 983 799 q 1057 672 1057 725 l 1057 44 l 1083 44 q 1101 52 1094 44 q 1108 71 1108 60 l 1108 672 q 1094 741 1108 708 q 1056 798 1081 774 q 999 836 1032 822 q 931 850 967 850 l 803 850 q 682 801 733 850 l 651 772 l 621 801 q 606 814 614 808 q 590 825 597 819 l 589 825 q 586 828 586 828 q 584 828 585 828 q 582 829 583 829 l 581 829 q 578 831 579 831 q 575 833 576 832 q 573 834 574 833 q 571 835 572 835 l 567 836 l 565 838 l 561 839 q 558 840 560 839 l 557 840 l 553 842 q 550 843 551 842 l 549 843 l 546 843 l 542 844 l 540 844 l 536 846 l 532 847 l 525 849 l 522 849 l 521 849 l 518 849 l 517 849 q 514 850 514 849 l 513 850 l 510 850 l 508 850 l 504 850 l 503 850 l 500 850 l 372 850 q 250 801 301 850 l 219 772 l 189 801 q 68 850 138 850 l 53 850 l 53 799 l 68 799 q 158 762 121 799 q 194 672 194 725 l 194 71 q 201 52 194 60 q 219 44 208 44 l 244 44 l 244 672 m 594 874 q 592 875 593 875 q 589 876 590 875 l 594 874 z "},"N":{"ha":814,"x_min":3,"x_max":717,"o":"m 367 754 q 309 730 333 754 q 285 672 285 706 l 285 0 l 269 0 l 214 0 q 165 21 185 0 q 144 71 144 42 l 144 672 q 121 729 144 706 q 64 753 97 753 l 3 753 l 3 896 l 63 896 q 146 879 107 896 q 214 835 185 863 q 283 879 244 863 q 367 896 322 896 l 494 896 q 581 878 540 896 q 651 830 621 860 q 699 759 682 800 q 717 672 717 718 l 717 71 q 696 21 717 42 q 646 0 675 0 l 592 0 l 575 0 l 575 15 l 575 672 q 551 730 575 706 q 494 754 528 754 l 367 754 m 646 44 q 665 52 657 44 q 672 71 672 60 l 672 672 q 658 741 672 708 q 620 798 644 774 q 563 836 596 822 q 494 850 531 850 l 367 850 q 246 801 297 850 l 214 772 l 183 801 q 63 850 132 850 l 47 850 l 47 799 l 64 799 q 153 762 117 799 q 189 672 189 725 l 189 71 q 196 52 189 60 q 214 44 203 44 l 240 44 l 240 672 q 277 762 240 725 q 367 799 314 799 l 494 799 q 584 762 547 799 q 621 672 621 725 l 621 44 l 646 44 z "},"O":{"ha":819,"x_min":6,"x_max":719,"o":"m 497 894 q 583 877 543 894 q 654 829 624 860 q 702 758 685 799 q 719 672 719 718 l 719 222 q 702 136 719 176 q 654 65 685 96 q 583 17 624 35 q 497 0 543 0 l 369 0 q 283 17 324 0 q 213 65 243 35 q 165 136 182 96 q 147 222 147 176 l 147 672 q 124 729 147 706 q 67 753 100 753 l 6 753 l 6 894 l 65 894 q 149 878 110 894 q 217 835 188 863 q 251 861 232 849 l 253 861 q 256 864 253 861 l 257 864 q 259 865 258 865 q 261 867 260 865 q 263 868 263 868 q 265 869 264 868 l 267 869 l 269 871 l 272 872 l 274 874 l 275 874 l 276 875 l 279 876 l 282 878 l 283 878 l 286 879 l 289 881 l 292 881 l 294 882 l 297 883 l 299 883 l 303 885 l 304 885 q 307 886 306 886 l 310 888 l 314 888 q 319 889 315 889 q 324 890 321 890 l 325 890 q 329 892 326 892 l 331 892 q 335 893 333 892 l 336 893 l 340 893 l 342 893 q 346 894 344 893 l 347 894 l 353 894 l 358 894 l 364 894 q 431 895 397 896 q 497 894 464 894 m 675 672 q 661 741 675 708 q 623 798 647 774 q 566 836 599 822 q 497 850 533 850 q 431 851 464 850 q 365 850 397 851 l 361 850 l 360 850 l 357 850 l 356 849 l 353 849 l 351 849 l 347 849 q 343 847 344 849 l 342 847 l 339 847 l 338 847 q 336 847 336 847 q 335 846 336 846 l 333 846 l 331 846 l 329 844 l 325 844 q 322 843 324 844 l 319 843 l 318 842 l 314 840 l 310 839 l 308 839 l 304 838 l 300 836 l 297 835 l 294 833 l 290 831 l 286 829 q 283 828 285 828 l 283 826 q 281 825 281 826 l 279 825 q 276 824 278 824 l 276 822 q 249 801 263 815 l 217 772 l 186 801 q 65 850 133 850 l 50 850 l 50 799 l 67 799 q 156 762 119 799 q 192 672 192 725 l 192 222 q 206 153 192 186 q 244 97 219 121 q 301 58 268 72 q 369 44 333 44 l 497 44 q 566 58 533 44 q 623 97 599 72 q 661 153 647 121 q 675 222 675 186 l 675 672 m 497 799 q 587 762 550 799 q 624 672 624 725 l 624 222 q 587 133 624 169 q 497 96 550 96 l 369 96 q 280 133 317 96 q 243 222 243 169 l 243 672 q 251 718 243 696 q 276 758 258 740 q 324 788 297 779 q 381 799 351 797 q 440 800 410 801 q 497 799 469 799 m 578 672 q 554 730 578 706 q 497 754 531 754 q 438 756 474 754 q 368 753 401 758 q 311 729 335 747 q 288 672 288 711 l 288 222 q 312 165 288 189 q 369 140 336 140 l 497 140 q 554 165 531 140 q 578 222 578 189 l 578 672 z "},"P":{"ha":807,"x_min":7,"x_max":721,"o":"m 499 896 q 585 878 544 896 q 656 830 625 860 q 703 759 686 800 q 721 672 721 718 l 721 600 q 703 513 721 554 q 656 442 686 472 q 585 394 625 413 q 499 376 544 376 l 289 376 l 289 357 l 289 0 l 274 0 l 218 0 q 169 21 189 0 q 149 71 149 42 l 149 672 q 125 729 149 706 q 68 753 101 753 l 7 753 l 7 896 l 67 896 q 150 879 111 896 q 218 835 189 863 q 288 879 249 863 q 371 896 326 896 l 499 896 m 675 672 q 661 741 675 708 q 623 798 647 774 q 567 836 599 822 q 499 850 535 850 l 371 850 q 250 801 299 850 l 218 772 l 188 801 q 67 850 136 850 l 51 850 l 51 799 l 68 799 q 157 762 121 799 q 193 672 193 725 l 193 71 q 200 52 193 60 q 218 44 207 44 l 244 44 l 244 357 l 244 422 l 499 422 q 567 436 535 422 q 623 474 599 450 q 661 531 647 499 q 675 600 675 564 l 675 672 m 499 799 q 548 789 525 799 q 588 762 571 779 q 615 722 606 744 q 625 672 625 699 l 625 600 q 588 510 625 547 q 499 472 551 472 l 244 472 l 244 532 l 244 672 q 281 762 244 725 q 371 799 318 799 l 499 799 m 579 672 q 556 730 579 706 q 499 754 532 754 l 431 754 l 371 754 q 313 730 338 754 q 289 672 289 706 l 289 532 l 289 524 l 289 518 l 499 518 q 556 542 532 518 q 579 600 579 567 l 579 672 z "},"Q":{"ha":808,"x_min":6,"x_max":719,"o":"m 497 796 q 587 759 550 796 q 624 669 624 722 l 624 219 q 610 163 624 189 q 572 118 596 136 l 532 88 l 457 215 l 414 190 l 469 93 l 369 93 q 280 130 317 93 q 243 219 243 167 l 243 669 q 280 759 243 722 q 369 796 317 796 l 497 796 m 578 669 q 554 727 578 703 q 497 751 531 751 l 369 751 q 312 727 336 751 q 288 669 288 703 l 288 219 q 312 163 288 186 q 369 139 336 139 l 392 139 l 351 207 l 474 278 l 544 154 q 578 219 578 179 l 578 669 m 719 219 q 691 110 719 160 q 615 32 663 61 l 676 -72 l 554 -143 l 472 -3 l 369 -3 q 283 15 324 -3 q 213 63 243 32 q 165 133 182 93 q 147 219 147 174 l 147 658 l 147 669 q 124 726 147 703 q 67 750 100 750 l 6 750 l 6 893 l 65 893 q 149 876 110 893 q 217 832 188 860 q 369 893 282 893 l 497 893 q 583 875 543 893 q 654 827 624 857 q 702 756 685 797 q 719 669 719 715 l 719 219 m 592 69 q 652 134 631 94 q 674 219 674 174 l 674 669 q 660 738 674 706 q 622 795 646 771 q 565 833 597 819 q 497 847 533 847 l 369 847 q 249 799 297 847 l 217 769 l 186 799 q 65 847 135 847 l 50 847 l 50 796 l 67 796 q 156 759 119 796 q 192 669 192 722 l 192 658 l 192 219 q 206 151 192 183 q 244 94 219 118 q 301 56 268 69 q 369 42 333 42 l 499 42 l 571 -82 l 614 -56 l 556 47 l 592 69 z "},"R":{"ha":819,"x_min":8,"x_max":722,"o":"m 722 600 q 706 517 722 556 q 663 447 690 478 q 706 379 690 418 q 722 296 722 340 l 722 71 q 701 21 722 42 q 651 0 681 0 l 581 0 l 581 296 q 557 353 581 329 q 500 376 533 376 l 290 376 l 290 0 l 275 0 l 219 0 q 170 21 190 0 q 150 71 150 42 l 150 672 q 126 729 150 706 q 69 753 103 753 l 8 753 l 8 896 l 68 896 q 151 879 113 896 q 219 835 190 863 q 289 879 250 863 q 372 896 328 896 l 500 896 q 586 878 546 896 q 657 830 626 860 q 705 759 688 800 q 722 672 722 718 l 722 600 m 678 672 q 664 741 678 708 q 626 798 650 774 q 569 836 601 822 q 500 850 536 850 l 374 850 l 372 850 q 251 801 300 850 l 219 772 l 189 801 q 68 850 138 850 l 53 850 l 53 799 l 69 799 q 158 762 122 799 q 194 672 194 725 l 194 71 q 201 53 194 60 q 219 46 208 46 l 246 46 l 246 376 l 246 422 l 500 422 q 590 385 553 422 q 626 296 626 349 l 626 46 l 651 46 q 670 53 663 46 q 678 71 678 60 l 678 296 q 665 360 678 329 q 629 417 653 392 l 600 447 l 629 479 q 665 534 653 503 q 678 600 678 565 l 678 672 m 500 800 q 590 763 553 800 q 626 672 626 725 l 626 600 q 590 510 626 547 q 500 474 553 474 l 246 474 l 246 518 l 246 672 q 283 763 246 725 q 372 800 319 800 l 500 800 m 581 672 q 557 730 581 706 q 500 754 533 754 l 372 754 q 315 730 339 754 q 290 672 290 706 l 290 518 l 500 518 q 557 542 533 518 q 581 600 581 567 l 581 672 z "},"S":{"ha":814,"x_min":1,"x_max":715,"o":"m 61 896 l 67 896 q 72 894 71 896 l 78 894 l 83 894 l 85 894 q 89 893 88 894 l 94 893 l 96 893 q 98 892 97 893 q 100 892 99 892 l 101 892 l 106 892 l 106 890 l 111 890 l 111 889 l 117 889 q 121 888 118 888 l 122 886 l 126 886 l 128 885 q 132 883 131 885 l 133 883 q 136 882 136 882 l 139 882 q 142 881 140 881 l 143 879 q 147 878 146 879 l 149 878 l 151 876 l 154 875 l 157 874 l 158 872 l 161 871 l 164 871 l 165 869 l 168 868 l 171 867 l 174 865 l 175 864 l 178 863 l 179 861 q 183 858 181 861 q 188 856 185 858 q 190 854 189 854 q 192 853 190 854 q 196 850 194 851 q 200 847 197 849 l 201 846 l 201 844 l 204 843 l 206 842 q 208 840 207 840 q 210 839 208 840 q 211 837 211 838 q 213 835 211 836 q 282 879 243 863 q 365 896 321 896 l 424 896 l 479 896 l 493 896 q 579 878 539 896 q 650 830 619 860 q 698 759 681 800 q 715 672 715 718 l 715 636 l 574 636 l 574 672 q 550 730 574 706 q 493 754 526 754 l 479 754 l 469 754 l 424 754 l 365 754 q 308 730 332 754 q 283 672 283 706 l 283 600 q 308 542 283 567 q 365 518 332 518 l 469 518 l 493 518 q 579 501 539 518 q 650 453 619 483 q 698 382 681 422 q 715 296 715 342 l 715 222 q 698 136 715 176 q 650 65 681 96 q 579 17 619 35 q 493 0 539 0 l 354 0 q 267 17 308 0 q 196 65 226 35 q 148 136 165 96 q 131 222 131 176 l 131 260 l 272 260 l 272 222 q 297 165 272 189 q 354 142 321 142 l 493 142 q 550 165 526 142 q 574 222 574 189 l 574 296 q 550 353 574 329 q 493 376 526 376 l 469 376 l 365 376 q 279 394 319 376 q 208 442 239 413 q 160 513 178 472 q 143 600 143 554 l 143 672 l 143 675 l 142 676 q 129 716 140 699 q 100 744 118 733 q 61 754 81 754 l 1 754 l 1 896 l 3 896 l 4 896 l 6 896 l 7 896 l 8 896 l 10 896 l 11 896 l 13 896 l 14 896 l 15 896 l 17 896 l 19 896 l 21 896 l 22 896 l 25 896 l 26 896 l 29 896 l 31 896 l 33 896 l 35 896 l 38 896 l 40 896 l 43 896 l 46 896 l 49 896 l 51 896 l 54 896 l 58 896 l 61 896 m 46 850 l 46 800 l 61 800 q 122 783 93 800 q 168 740 150 768 q 188 679 186 713 l 188 676 l 188 672 l 188 600 q 201 531 188 564 q 240 474 215 499 q 297 436 264 450 q 365 422 329 422 l 493 422 q 583 385 546 422 q 619 296 619 349 l 619 222 q 583 133 619 169 q 493 96 546 96 l 354 96 q 307 105 329 96 q 267 130 285 114 q 240 167 250 146 q 228 214 229 189 l 176 214 q 192 149 178 179 q 231 95 207 118 q 287 59 256 72 q 354 46 318 46 l 493 46 q 561 60 529 46 q 617 97 593 74 q 656 153 642 121 q 669 222 669 186 l 669 296 q 656 365 669 332 q 617 422 642 397 q 561 460 593 446 q 493 474 529 474 l 365 474 q 276 510 313 474 q 239 600 239 547 l 239 672 q 276 763 239 725 q 365 800 313 800 l 493 800 q 579 765 543 800 q 619 682 615 731 l 669 682 q 653 747 668 717 q 615 801 639 778 q 560 837 592 824 q 493 850 528 850 l 365 850 q 244 801 296 850 l 213 772 l 182 803 q 181 803 181 803 q 179 804 181 804 l 176 807 l 175 808 l 171 811 q 168 813 169 813 q 165 817 167 814 q 163 818 163 818 l 161 819 q 158 821 160 819 q 156 822 156 822 l 150 825 l 149 826 l 144 829 l 140 831 l 139 832 l 135 833 l 131 836 l 129 836 q 128 837 128 836 q 126 838 128 838 l 125 838 q 122 839 125 839 l 121 839 q 118 840 119 840 q 114 842 117 842 l 113 842 q 110 843 113 843 l 108 843 q 106 844 107 844 q 101 846 103 844 l 100 846 l 97 846 l 96 847 l 93 847 l 92 847 l 89 847 l 88 849 l 83 849 l 79 849 q 77 849 78 849 q 75 850 76 850 l 71 850 l 69 850 l 67 850 l 65 850 l 61 850 l 46 850 z "},"T":{"ha":678,"x_min":4,"x_max":576,"o":"m 4 754 l 4 825 q 25 875 4 854 q 75 896 46 896 l 506 896 q 556 875 535 896 q 576 825 576 854 l 576 754 l 406 754 l 361 754 l 361 357 l 361 167 l 361 142 l 361 0 l 344 0 l 290 0 q 240 21 261 0 q 219 71 219 42 l 219 125 l 219 167 l 219 213 l 219 357 l 219 754 l 4 754 m 315 800 l 532 800 l 532 825 q 524 843 532 836 q 506 850 517 850 l 75 850 q 56 843 64 850 q 49 825 49 836 l 49 800 l 265 800 l 265 71 q 272 53 265 60 q 290 46 279 46 l 315 46 l 315 800 z "},"U":{"ha":822,"x_min":4,"x_max":718,"o":"m 718 222 q 701 136 718 176 q 653 65 683 96 q 582 17 622 35 q 496 0 542 0 l 368 0 q 282 17 322 0 q 211 65 242 35 q 163 136 181 96 q 146 222 146 176 l 146 375 l 146 601 l 146 672 l 146 675 l 144 676 q 132 716 143 699 q 103 744 121 733 q 64 754 83 754 l 4 754 l 4 896 l 6 896 l 7 896 l 8 896 l 10 896 l 11 896 l 13 896 l 14 896 l 15 896 l 17 896 l 18 896 l 19 896 l 22 896 l 24 896 l 25 896 l 28 896 l 29 896 l 32 896 l 33 896 l 36 896 l 38 896 l 40 896 l 43 896 l 46 896 l 49 896 l 51 896 l 54 896 l 57 896 l 61 896 l 64 896 l 69 896 q 75 894 74 896 l 81 894 l 86 894 l 88 894 q 92 893 90 894 l 97 893 l 99 893 q 101 892 100 893 q 103 892 101 892 l 104 892 l 108 892 l 108 890 l 114 890 l 114 889 l 119 889 q 124 888 121 888 l 125 886 l 129 886 l 131 885 q 135 883 133 885 l 136 883 q 139 882 139 882 l 142 882 q 144 881 143 881 l 146 879 q 150 878 149 879 l 151 878 l 154 876 l 157 875 l 160 874 l 161 872 l 164 871 l 167 871 l 168 869 l 171 868 l 174 867 l 176 865 l 178 864 l 181 863 l 182 861 q 186 858 183 861 q 190 856 188 858 q 192 854 192 854 q 194 853 193 854 q 199 850 197 851 q 203 847 200 849 l 204 846 l 204 844 l 207 843 l 208 842 q 210 840 210 840 q 213 839 211 840 q 214 837 214 838 q 215 835 214 836 q 267 763 249 804 q 286 672 286 721 l 286 650 l 286 375 l 286 222 q 310 165 286 189 q 368 142 335 142 l 496 142 q 553 165 529 142 q 576 222 576 189 l 576 874 l 576 896 l 647 896 q 697 875 676 896 q 718 825 718 854 l 718 222 m 622 850 l 622 222 q 585 133 622 169 q 496 96 549 96 l 368 96 q 278 133 315 96 q 242 222 242 169 l 242 672 q 185 803 242 749 q 183 803 183 803 q 182 804 183 804 l 182 806 q 179 807 179 807 l 176 810 l 174 811 q 171 813 172 813 q 168 817 169 814 q 166 817 167 817 q 164 818 165 818 l 164 819 q 161 821 163 819 q 158 822 158 822 l 157 824 l 153 825 l 151 826 l 147 829 l 143 831 l 142 832 l 138 833 l 133 836 l 132 836 q 131 837 131 836 q 129 838 131 838 l 128 838 q 125 839 128 839 l 124 839 q 121 840 122 840 q 117 842 119 842 l 115 842 q 113 843 115 843 l 111 843 q 108 844 110 844 q 104 846 106 844 l 103 846 l 100 846 l 99 847 l 96 847 l 94 847 l 92 847 l 90 849 l 86 849 l 82 849 q 80 849 81 849 q 78 850 79 850 l 74 850 l 72 850 l 69 850 l 68 850 l 64 850 l 49 850 l 49 800 l 64 800 q 125 783 96 800 q 171 740 153 768 q 190 678 189 713 l 190 675 l 190 672 l 190 222 q 204 153 190 186 q 242 97 218 121 q 299 60 267 74 q 368 46 332 46 l 496 46 q 564 60 532 46 q 620 97 596 74 q 658 153 644 121 q 672 222 672 186 l 672 825 q 665 843 672 836 q 647 850 658 850 l 622 850 z "},"V":{"ha":807,"x_min":6,"x_max":719,"o":"m 288 672 l 288 375 q 298 309 288 343 q 324 247 308 275 q 342 217 329 235 q 369 182 354 199 q 400 153 383 165 q 433 142 417 142 l 439 142 q 470 156 454 144 q 500 184 486 168 q 525 217 514 200 q 543 247 536 235 q 567 309 557 275 q 578 375 578 343 l 578 896 l 649 896 q 699 875 678 896 q 719 825 719 854 l 719 375 q 697 251 719 317 q 635 129 674 185 q 544 37 596 74 q 433 0 492 0 q 322 37 374 0 q 231 129 269 74 q 169 251 192 185 q 147 375 147 317 l 147 601 l 147 672 l 147 675 l 146 676 q 133 716 144 699 q 104 744 122 733 q 65 754 85 754 l 6 754 l 6 896 l 7 896 l 8 896 l 10 896 l 11 896 l 13 896 l 14 896 l 15 896 l 17 896 l 18 896 l 19 896 l 21 896 l 24 896 l 25 896 l 26 896 l 29 896 l 31 896 l 33 896 l 35 896 l 38 896 l 39 896 l 42 896 l 44 896 l 47 896 l 50 896 l 53 896 l 56 896 l 58 896 l 63 896 l 65 896 l 71 896 q 76 894 75 896 l 82 894 l 88 894 l 89 894 q 93 893 92 894 l 99 893 l 100 893 q 102 892 101 893 q 104 892 103 892 l 106 892 l 110 892 l 110 890 l 115 890 l 115 889 l 121 889 q 125 888 122 888 l 126 886 l 131 886 l 132 885 q 136 883 135 885 l 138 883 q 140 882 140 882 l 143 882 q 146 881 144 881 l 147 879 q 151 878 150 879 l 153 878 l 156 876 l 158 875 l 161 874 l 163 872 l 165 871 l 168 871 l 169 869 l 172 868 l 175 867 l 178 865 l 179 864 l 182 863 l 183 861 q 188 858 185 861 q 192 856 189 858 q 194 854 193 854 q 196 853 194 854 q 200 850 199 851 q 204 847 201 849 l 206 846 l 206 844 l 208 843 l 210 842 q 212 840 211 840 q 214 839 213 840 q 215 837 215 838 q 217 835 215 836 q 269 763 250 804 q 288 672 288 721 m 50 850 l 50 800 l 65 800 q 126 783 97 800 q 172 740 154 768 q 192 679 190 713 l 192 676 l 192 672 l 192 375 q 206 287 192 332 q 239 203 219 242 q 272 149 253 176 q 317 98 292 121 q 371 60 342 75 q 433 46 400 46 q 444 46 439 46 q 456 47 450 46 q 543 92 503 56 q 613 176 583 128 q 658 277 642 224 q 675 375 675 331 l 675 825 q 667 843 675 836 q 649 850 660 850 l 624 850 l 624 375 q 612 299 624 339 q 583 226 600 260 q 559 186 574 207 q 527 147 544 165 q 490 115 510 128 q 447 97 469 101 q 433 96 442 96 q 387 109 410 96 q 344 142 364 122 q 309 184 325 161 q 283 226 293 207 q 255 299 267 260 q 243 375 243 339 l 243 672 q 186 803 243 749 q 185 803 185 803 q 183 804 185 804 q 181 807 181 807 l 178 810 l 175 811 q 172 813 174 813 q 169 817 171 814 q 167 818 167 818 l 165 819 q 163 821 164 819 q 160 822 160 822 l 154 825 l 151 828 l 149 829 l 144 831 l 143 832 l 139 833 l 135 836 l 133 836 q 132 837 132 836 q 131 838 132 838 l 129 838 q 126 839 129 839 l 125 839 q 122 840 124 840 q 118 842 121 842 l 117 842 q 114 843 117 843 l 113 843 q 110 844 111 844 q 106 846 107 844 l 104 846 l 101 846 l 100 847 l 97 847 l 96 847 l 93 847 l 92 849 l 88 849 l 83 849 q 81 849 82 849 q 79 850 81 850 l 75 850 l 74 850 l 71 850 l 69 850 l 65 850 l 50 850 z "},"W":{"ha":1261,"x_min":14,"x_max":1161,"o":"m 297 671 l 297 374 q 308 308 297 342 q 333 246 318 274 q 351 215 339 233 q 378 181 364 197 q 410 152 393 164 q 442 140 426 140 l 447 140 q 479 155 464 143 q 508 183 494 167 q 533 216 522 199 q 551 246 544 233 q 577 308 567 274 q 588 374 588 342 l 588 824 l 588 894 l 658 894 l 729 894 l 729 824 l 729 374 q 740 308 729 342 q 765 246 750 274 q 783 215 771 233 q 810 181 796 197 q 842 152 825 164 q 874 140 858 140 l 879 140 q 910 155 894 143 q 940 183 926 167 q 965 216 954 199 q 983 246 976 233 q 1009 308 999 274 q 1019 374 1019 342 l 1019 894 l 1090 894 q 1140 874 1119 894 q 1161 824 1161 853 l 1161 374 q 1138 249 1161 315 q 1076 128 1115 183 q 985 35 1038 72 q 874 -1 933 -1 q 753 42 808 -1 q 658 147 699 85 q 563 42 618 85 q 442 -1 507 -1 q 331 35 383 -1 q 240 128 279 72 q 178 249 201 183 q 156 374 156 315 l 156 600 l 156 671 l 156 674 l 156 675 q 143 715 154 697 q 114 743 132 732 q 95 750 104 747 q 75 753 86 753 l 14 753 l 14 894 l 15 894 l 17 894 l 18 894 l 19 894 l 21 894 l 22 894 l 24 894 l 26 894 l 28 894 l 29 894 l 31 894 l 32 894 l 35 894 l 36 894 l 38 894 l 40 894 l 42 894 l 44 894 l 46 894 l 49 894 l 51 894 l 54 894 l 57 894 l 58 894 l 63 894 l 65 894 l 68 894 l 71 894 l 75 894 l 81 894 q 86 893 83 894 l 92 893 l 97 893 q 103 892 101 893 l 108 892 q 110 891 110 892 q 113 890 111 890 l 114 890 l 118 890 l 119 889 l 124 889 l 125 888 l 129 888 l 131 888 q 135 886 132 886 l 136 885 l 140 885 l 142 883 q 146 882 144 883 q 148 881 147 882 q 150 881 149 881 l 151 881 q 156 879 153 879 l 157 878 q 160 876 158 878 l 163 876 l 165 875 l 167 874 l 169 872 l 172 871 l 175 869 l 176 869 l 179 868 l 182 867 l 183 865 l 186 864 l 189 863 l 192 861 l 193 860 q 196 857 193 860 l 197 857 l 200 854 l 201 854 l 204 851 l 206 851 q 209 849 208 850 q 213 846 210 847 l 215 844 l 215 843 l 217 842 l 219 840 q 222 838 219 840 l 226 833 q 278 761 258 803 q 297 671 297 719 m 60 849 l 60 799 l 75 799 q 135 782 107 799 q 181 739 164 767 q 201 676 199 711 l 201 674 l 201 671 l 201 374 q 215 285 201 331 q 247 201 228 240 q 281 147 261 175 q 326 97 301 119 q 381 59 351 74 q 442 44 410 44 q 497 56 471 44 q 545 86 522 68 q 587 127 568 104 q 619 172 606 150 l 658 233 l 697 172 q 730 127 711 150 q 771 86 749 104 q 819 56 793 68 q 874 44 846 44 q 896 46 889 44 q 983 90 943 54 q 1053 174 1024 126 q 1099 276 1082 222 q 1115 374 1115 329 l 1115 824 q 1108 842 1115 835 q 1090 849 1101 849 l 1064 849 l 1064 374 q 1052 298 1064 338 q 1024 225 1040 258 q 999 185 1014 206 q 967 145 985 164 q 930 113 950 126 q 888 96 910 100 q 874 94 883 94 q 827 108 850 94 q 785 140 804 121 q 750 183 765 160 q 725 225 735 206 q 695 298 707 258 q 683 374 683 338 l 683 849 l 633 849 l 633 374 q 622 298 633 338 q 592 225 610 258 q 567 185 582 206 q 535 145 553 164 q 498 113 518 126 q 456 96 478 100 q 442 94 451 94 q 395 108 418 94 q 353 140 372 121 q 318 183 333 160 q 293 225 303 206 q 263 298 275 258 q 251 374 251 338 l 251 671 q 237 742 251 708 q 196 801 222 775 q 193 803 193 803 l 192 803 q 189 806 192 806 l 186 808 l 185 810 q 178 815 182 811 q 176 816 176 815 q 175 817 176 817 l 174 818 q 172 819 172 818 l 171 819 q 168 821 171 821 l 168 822 l 164 824 l 161 825 l 158 828 l 154 829 l 151 831 l 149 832 l 144 835 l 143 835 q 140 836 140 836 l 139 836 q 136 838 138 838 l 135 838 q 132 839 133 839 l 131 839 q 128 840 129 840 l 126 840 q 124 842 124 842 l 122 842 q 119 843 119 843 l 118 843 q 115 844 115 843 l 114 844 l 111 844 l 110 846 l 107 846 l 106 846 l 101 846 l 101 847 l 97 847 l 93 847 l 92 847 q 89 849 89 849 l 88 849 l 83 849 l 81 849 l 79 849 l 75 849 l 60 849 z "},"X":{"ha":643,"x_min":4,"x_max":563,"o":"m 19 764 q 12 817 4 789 q 46 860 19 844 l 93 888 l 107 896 l 178 774 l 283 589 l 328 665 l 389 774 l 460 896 l 474 888 l 521 860 q 555 817 547 844 q 547 764 563 789 l 519 715 l 476 642 l 404 515 l 365 447 l 404 379 l 476 254 l 519 179 l 547 132 q 555 78 563 107 q 521 35 547 50 l 474 8 l 460 0 l 389 122 l 353 186 l 283 306 l 239 231 l 178 122 l 107 0 l 93 8 l 46 35 q 12 78 19 50 q 19 132 4 107 l 47 179 l 90 254 l 163 379 l 201 447 l 163 515 l 160 519 l 19 764 m 283 397 l 476 61 l 499 75 q 511 90 508 81 q 508 110 514 100 l 313 447 l 508 786 q 511 806 514 796 q 499 821 508 815 l 476 833 l 283 499 l 90 833 l 68 821 q 56 806 58 815 q 58 786 53 796 l 254 447 l 58 110 q 56 90 53 100 q 68 75 58 81 l 90 61 l 283 397 z "},"Y":{"ha":642,"x_min":3,"x_max":561,"o":"m 519 858 q 553 815 546 843 q 546 763 561 788 q 449 594 497 678 q 353 428 401 511 l 353 -1 l 336 -1 l 282 -1 q 232 19 253 -1 q 211 69 211 40 l 211 428 l 18 763 q 10 815 3 788 q 44 858 18 843 l 92 886 l 106 894 l 282 588 l 458 894 l 472 886 l 519 858 m 507 785 q 510 804 513 794 q 497 819 507 814 l 475 832 l 282 497 l 89 832 l 67 819 q 54 804 57 814 q 57 785 51 794 l 257 439 l 257 69 q 264 51 257 58 q 282 44 271 44 l 307 44 l 307 439 l 314 450 q 410 617 363 533 q 507 785 458 701 z "},"Z":{"ha":679,"x_min":4,"x_max":576,"o":"m 194 142 l 576 142 l 576 71 q 556 21 576 42 q 506 0 535 0 l 114 0 l 28 0 l 4 0 l 4 93 q 194 422 99 257 q 386 754 290 588 l 4 754 l 4 825 q 25 875 4 854 q 75 896 46 896 l 467 896 l 553 896 l 576 896 l 576 803 q 386 473 482 639 q 194 142 290 307 m 532 815 l 532 850 l 75 850 q 56 843 64 850 q 49 825 49 836 l 49 800 l 464 800 l 49 81 l 49 46 l 506 46 q 524 53 517 46 q 532 71 532 60 l 532 96 l 117 96 l 532 815 z "},"a":{"ha":796,"x_min":19,"x_max":733,"o":"m 115 224 q 152 314 115 276 q 242 351 189 351 l 496 351 l 496 224 q 459 134 496 171 q 369 97 422 97 l 242 97 q 152 134 189 97 q 115 224 115 171 m 451 306 l 242 306 q 185 281 208 306 q 161 224 161 257 q 185 167 161 190 q 242 143 208 143 l 369 143 q 427 167 403 143 q 451 224 451 190 l 451 306 m 733 143 l 733 1 l 674 1 q 521 63 586 1 q 453 18 492 35 q 369 1 414 1 l 242 1 q 156 19 196 1 q 85 67 115 36 q 37 138 54 97 q 19 224 19 178 q 37 310 19 269 q 85 382 54 351 q 156 430 115 413 q 242 447 196 447 l 451 447 l 451 494 q 427 551 451 528 q 369 575 403 575 l 242 575 q 185 551 208 575 q 161 494 161 528 l 19 494 q 37 580 19 540 q 83 649 54 619 q 152 697 113 679 q 236 717 192 715 q 303 717 269 718 q 369 717 336 717 q 456 699 415 717 q 526 651 496 682 q 574 581 557 621 q 592 494 592 540 l 592 224 l 592 222 q 604 182 593 200 q 635 153 615 164 q 674 143 654 143 l 733 143 m 688 97 l 674 97 q 613 113 643 97 q 565 158 582 129 q 547 221 549 186 l 547 224 l 547 494 q 533 563 547 531 q 495 619 519 594 q 438 657 471 643 q 369 671 406 671 q 303 672 336 671 q 238 671 271 672 q 131 633 176 669 q 71 539 86 596 l 124 539 q 169 598 138 575 q 242 621 201 621 l 369 621 q 459 584 422 621 q 496 494 496 547 l 496 401 l 242 401 q 173 388 206 401 q 117 349 140 374 q 79 293 93 325 q 65 224 65 261 q 79 155 65 188 q 117 99 93 122 q 173 61 140 75 q 242 47 206 47 l 369 47 q 490 94 439 47 l 521 124 l 553 94 q 608 59 576 71 q 674 47 640 47 l 688 47 l 688 97 z "},"b":{"ha":744,"x_min":-79,"x_max":635,"o":"m 413 714 q 499 697 458 714 q 569 649 539 679 q 617 578 600 618 q 635 492 635 538 l 635 222 q 617 136 635 176 q 569 65 600 96 q 499 17 539 35 q 413 0 458 0 l 285 0 q 199 17 239 0 q 128 65 158 35 q 80 136 97 96 q 63 222 63 176 l 63 813 l 63 814 l 63 817 q 19 883 60 863 q -19 893 4 893 l -79 893 l -79 1035 l -78 1035 l -76 1035 l -75 1035 l -74 1035 l -72 1035 l -71 1035 l -69 1035 l -67 1035 l -65 1035 l -64 1035 l -62 1035 l -61 1035 l -58 1035 l -57 1035 l -56 1035 l -53 1035 l -51 1035 l -49 1035 l -47 1035 l -44 1035 l -42 1035 l -39 1035 l -37 1035 l -35 1035 l -32 1035 l -28 1035 l -25 1035 l -22 1035 l -19 1035 l -12 1035 l -7 1035 q -1 1033 -4 1035 l 4 1033 l 10 1033 q 15 1032 11 1032 q 19 1031 18 1032 l 21 1031 l 25 1031 l 26 1031 q 31 1029 28 1029 l 32 1029 q 36 1028 33 1028 l 38 1028 q 42 1026 39 1026 q 46 1025 43 1025 l 49 1024 l 51 1024 l 53 1022 q 57 1021 56 1022 l 58 1021 q 60 1020 60 1021 q 63 1019 61 1019 l 64 1018 q 67 1017 64 1018 l 68 1017 l 71 1015 l 74 1014 l 76 1013 l 78 1013 l 81 1011 l 83 1010 l 86 1008 l 89 1007 l 90 1006 l 93 1004 l 94 1003 l 97 1001 l 99 1000 q 101 999 100 1000 q 103 999 101 999 l 103 997 q 105 997 104 997 q 107 996 106 996 l 108 994 l 111 992 q 115 989 114 990 q 119 986 117 988 l 121 985 l 124 983 l 125 981 q 129 978 126 981 q 132 975 132 975 q 184 903 165 944 q 203 813 203 861 l 203 699 q 285 714 244 714 l 413 714 m 589 492 q 575 560 589 528 q 537 617 561 593 q 481 656 513 642 q 413 669 449 669 l 285 669 q 219 657 250 669 l 158 632 l 158 813 q 144 883 158 849 q 101 942 129 917 q 99 944 101 942 l 96 947 l 93 949 l 90 951 q 85 956 88 954 l 82 958 q 80 959 81 958 q 78 960 79 960 l 78 961 q 75 963 76 961 l 72 964 l 68 967 l 64 968 l 61 971 l 57 972 l 53 974 l 51 975 l 49 975 q 47 976 49 976 l 46 978 l 43 978 l 40 979 l 38 979 l 38 981 l 35 981 l 33 982 l 31 982 l 29 983 l 26 983 l 25 983 q 22 985 24 985 l 21 985 q 17 986 18 985 l 13 986 q 8 988 11 988 l 3 988 q 0 989 3 988 l -1 989 l -6 989 l -10 989 l -14 989 l -15 989 l -19 989 l -33 989 l -33 939 l -19 939 q 42 924 14 939 q 88 880 71 908 q 107 818 106 851 l 108 815 l 108 813 l 108 222 q 122 153 108 186 q 160 97 136 121 q 216 60 183 74 q 285 46 249 46 l 413 46 q 481 60 449 46 q 537 97 513 74 q 575 153 561 121 q 589 222 589 186 l 589 492 m 413 618 q 460 608 438 618 q 501 581 483 599 q 528 541 518 564 q 539 492 539 518 l 539 222 q 528 173 539 196 q 501 133 518 150 q 460 106 483 115 q 413 96 438 96 l 285 96 q 195 133 232 96 q 158 222 158 169 l 158 492 q 195 581 158 544 q 285 618 232 618 l 413 618 m 493 492 q 469 549 493 525 q 413 574 444 574 l 285 574 q 227 549 251 574 q 203 492 203 525 l 203 222 q 227 165 203 189 q 285 142 251 142 l 413 142 q 469 165 444 142 q 493 222 493 189 l 493 492 z "},"c":{"ha":799,"x_min":-7,"x_max":693,"o":"m 693 574 l 485 574 l 482 574 l 479 574 l 475 574 l 472 574 l 469 574 l 467 574 l 464 574 l 463 574 l 460 574 l 457 574 l 456 574 l 453 574 l 450 574 l 449 574 l 447 574 l 444 574 l 443 574 l 442 574 l 440 574 l 438 574 l 436 574 l 435 574 l 433 574 l 432 574 l 431 574 l 429 574 l 428 574 l 426 574 l 425 574 l 424 574 l 422 574 l 421 574 l 419 574 l 418 574 l 417 574 l 415 574 l 414 574 l 413 574 l 411 574 l 410 574 l 408 574 l 407 574 l 404 574 l 403 574 l 401 574 l 400 574 l 399 574 l 396 574 l 394 574 l 392 574 l 390 574 l 388 574 l 386 574 l 383 574 l 381 574 l 378 574 l 376 574 l 374 574 l 371 574 l 367 574 l 364 574 l 361 574 l 358 574 q 301 549 325 574 q 276 492 276 525 l 276 222 q 301 165 276 189 q 358 140 325 140 l 361 140 l 364 140 l 367 140 l 371 140 l 374 140 l 376 140 l 378 140 l 381 140 l 383 140 l 386 140 l 388 140 l 390 140 l 392 140 l 394 140 l 396 140 l 399 140 l 400 140 l 401 140 l 403 140 l 404 140 l 407 140 l 408 140 l 410 140 l 411 140 l 413 140 l 414 140 l 415 140 l 417 140 l 418 140 l 419 140 l 421 140 l 422 140 l 424 140 l 425 140 l 426 140 l 428 140 l 429 140 l 431 140 l 432 140 l 433 140 l 435 140 l 436 140 l 438 140 l 440 140 l 442 140 l 443 140 l 444 140 l 447 140 l 449 140 l 450 140 l 453 140 l 456 140 l 457 140 l 460 140 l 463 140 l 464 140 l 467 140 l 469 140 l 472 140 l 475 140 l 479 140 l 482 140 l 485 140 l 693 140 l 693 69 q 672 19 693 40 q 622 -1 651 -1 l 485 -1 l 482 -1 l 479 -1 l 475 -1 l 472 -1 l 469 -1 l 467 -1 l 464 -1 l 463 -1 l 460 -1 l 457 -1 l 456 -1 l 453 -1 l 450 -1 l 449 -1 l 447 -1 l 444 -1 l 443 -1 l 442 -1 l 440 -1 l 438 -1 l 436 -1 l 435 -1 l 433 -1 l 432 -1 l 431 -1 l 429 -1 l 428 -1 l 426 -1 l 425 -1 l 424 -1 l 422 -1 l 421 -1 l 419 -1 l 418 -1 l 417 -1 l 415 -1 l 414 -1 l 413 -1 l 411 -1 l 410 -1 l 408 -1 l 407 -1 l 404 -1 l 403 -1 l 401 -1 l 400 -1 l 399 -1 l 396 -1 l 394 -1 l 392 -1 l 390 -1 l 388 -1 l 386 -1 l 383 -1 l 381 -1 l 378 -1 l 376 -1 l 374 -1 l 371 -1 l 367 -1 l 364 -1 l 361 -1 l 358 -1 l 356 -1 q 268 17 308 -1 q 198 65 228 35 q 151 136 168 96 q 135 222 135 176 l 135 492 l 135 496 q 122 535 133 518 q 93 563 111 553 q 54 574 74 574 l -7 574 l -7 715 l -6 715 l -4 715 l -3 715 l -1 715 l 0 715 l 1 715 l 3 715 l 6 715 l 7 715 l 8 715 l 10 715 l 11 715 l 14 715 l 15 715 l 17 715 l 19 715 l 21 715 l 24 715 l 25 715 l 28 715 l 31 715 l 33 715 l 35 715 l 38 715 l 40 715 l 44 715 l 47 715 l 50 715 l 54 715 q 60 714 57 715 l 65 714 l 71 714 l 76 714 q 79 713 78 714 q 82 713 81 713 l 88 713 q 92 711 89 711 l 93 711 q 97 710 96 711 l 99 710 q 103 708 101 710 l 104 708 l 108 708 l 110 707 q 114 706 113 707 l 115 706 q 119 704 118 706 l 121 704 q 123 703 122 704 q 125 703 124 703 q 127 702 126 703 q 129 701 128 701 l 131 700 l 135 700 l 136 699 q 138 698 138 699 q 139 697 138 697 l 142 697 l 144 696 l 146 694 l 149 693 l 151 692 l 154 690 l 156 689 l 158 689 l 161 686 l 163 686 l 165 685 l 168 683 l 171 682 l 172 681 q 175 678 172 681 l 176 678 q 179 675 176 678 l 181 675 l 183 672 l 185 672 l 192 665 l 194 664 l 196 663 l 199 661 q 201 658 199 658 l 206 654 q 356 715 267 713 l 358 715 l 361 715 l 364 715 l 367 715 l 371 715 l 374 715 l 376 715 l 378 715 l 381 715 l 383 715 l 386 715 l 388 715 l 390 715 l 392 715 l 394 715 l 396 715 l 399 715 l 400 715 l 401 715 l 403 715 l 404 715 l 407 715 l 408 715 l 410 715 l 411 715 l 413 715 l 414 715 l 415 715 l 417 715 l 418 715 l 419 715 l 421 715 l 422 715 l 424 715 l 425 715 l 426 715 l 428 715 l 429 715 l 431 715 l 432 715 l 433 715 l 435 715 l 436 715 l 438 715 l 440 715 l 442 715 l 443 715 l 444 715 l 447 715 l 449 715 l 450 715 l 453 715 l 456 715 l 457 715 l 460 715 l 463 715 l 464 715 l 467 715 l 469 715 l 472 715 l 475 715 l 479 715 l 482 715 l 485 715 l 622 715 q 672 694 651 715 q 693 644 693 674 l 693 574 m 647 618 l 647 644 q 640 663 647 656 q 622 669 633 669 l 356 669 q 236 621 289 669 l 206 592 l 174 621 q 171 624 174 624 l 171 625 q 168 626 169 626 l 165 629 l 164 631 q 160 633 161 632 q 157 635 160 633 l 157 636 q 156 637 156 636 q 154 638 156 638 l 153 638 q 152 639 153 639 q 151 640 151 639 l 150 640 q 147 642 149 642 l 144 644 l 140 646 l 138 649 l 133 650 l 131 651 l 128 653 l 126 654 l 121 656 q 119 657 119 656 l 118 657 q 115 658 115 658 l 114 658 q 111 660 111 660 l 110 660 q 108 660 108 660 q 107 661 108 661 l 106 661 q 103 663 103 663 l 101 663 q 99 664 99 664 l 97 664 l 94 664 l 93 665 l 90 665 l 89 665 q 87 666 88 665 q 85 667 86 667 l 81 667 q 76 668 79 668 l 72 668 l 71 668 l 68 668 l 67 668 q 63 669 65 669 l 60 669 l 58 669 l 54 669 l 39 669 l 39 618 l 54 618 q 114 603 86 618 q 160 559 143 588 q 181 497 178 531 l 181 494 l 181 492 l 181 211 l 182 200 q 201 139 186 167 q 239 90 215 111 q 292 57 263 69 q 356 44 322 44 l 622 44 q 640 51 633 44 q 647 69 647 58 l 647 94 l 358 94 q 308 105 332 94 q 267 133 285 115 q 240 173 250 150 q 231 222 231 196 l 231 492 q 240 541 231 518 q 267 581 250 564 q 308 608 285 599 q 358 618 332 618 l 647 618 z "},"d":{"ha":764,"x_min":10,"x_max":724,"o":"m 724 896 l 664 896 q 625 886 644 896 q 595 858 607 875 q 582 818 583 840 l 582 817 l 582 814 l 582 518 l 581 518 q 582 506 582 511 q 582 493 582 500 l 582 224 q 565 137 582 178 q 517 65 547 96 q 446 17 486 35 q 360 0 406 0 l 232 0 q 146 17 186 0 q 75 65 106 35 q 27 137 44 96 q 10 224 10 178 l 10 493 q 27 580 10 539 q 75 651 44 621 q 146 699 106 681 q 232 717 186 717 l 360 717 q 442 700 401 717 l 442 814 q 460 904 442 863 q 513 978 479 946 q 515 981 513 978 q 519 983 518 983 l 521 985 l 524 988 l 525 989 q 529 992 528 990 q 533 994 531 993 q 538 997 536 997 l 538 999 q 540 999 539 999 q 542 1000 540 1000 l 542 1001 q 544 1002 543 1001 q 546 1003 544 1003 l 547 1004 l 550 1006 l 551 1007 l 554 1008 l 556 1010 l 560 1011 l 561 1013 l 564 1014 l 567 1015 l 568 1015 l 571 1017 l 574 1018 l 576 1019 l 578 1019 q 582 1021 579 1021 l 583 1022 q 586 1024 585 1022 l 588 1024 q 592 1025 589 1025 l 593 1025 q 597 1026 594 1026 l 599 1028 q 603 1029 601 1028 l 604 1029 q 608 1031 607 1029 q 614 1032 611 1031 l 618 1032 l 619 1033 l 624 1033 l 625 1033 q 629 1035 626 1035 l 631 1035 q 635 1036 633 1035 l 636 1036 l 640 1036 l 642 1036 l 647 1036 q 649 1037 649 1036 q 653 1038 650 1038 l 658 1038 l 664 1038 l 667 1038 l 671 1038 l 674 1038 l 676 1038 l 679 1038 l 682 1038 l 685 1038 l 688 1038 l 689 1038 l 692 1038 l 694 1038 l 696 1038 l 699 1038 l 700 1038 l 703 1038 l 704 1038 l 706 1038 l 707 1038 l 710 1038 l 711 1038 l 713 1038 l 714 1038 l 715 1038 l 717 1038 l 718 1038 l 719 1038 l 721 1038 l 722 1038 l 724 1038 l 724 896 m 678 992 l 664 992 l 661 992 l 660 992 l 656 992 l 654 992 l 651 992 l 650 992 l 646 992 l 646 990 l 642 990 l 638 990 l 636 990 q 635 990 635 990 q 633 989 635 989 l 632 989 l 629 989 l 628 988 l 625 988 l 624 988 q 622 987 622 988 q 619 986 621 986 q 615 985 617 986 l 613 985 l 611 983 l 608 983 l 607 982 l 604 982 l 603 981 q 600 979 600 981 l 599 979 q 596 978 596 979 l 594 978 l 592 976 l 589 975 l 585 974 l 582 972 l 578 969 l 575 968 l 571 965 l 569 965 q 567 963 569 965 q 564 961 565 963 l 563 960 q 560 958 563 960 q 557 956 558 957 q 554 953 556 956 l 550 951 l 549 949 q 547 948 547 949 q 546 947 547 947 q 543 944 543 944 q 501 885 515 919 q 486 814 486 851 l 486 633 l 425 658 q 360 671 393 671 l 232 671 q 163 657 196 671 q 106 619 131 643 q 68 562 82 594 q 54 493 54 529 l 54 224 q 68 154 54 186 q 106 98 82 122 q 163 60 131 74 q 232 46 196 46 l 360 46 q 428 60 396 46 q 485 98 461 74 q 524 154 510 122 q 538 224 538 186 l 538 493 q 537 503 538 499 q 536 513 536 507 l 531 563 l 538 563 l 538 815 l 538 818 l 538 821 q 556 882 539 854 q 603 925 574 910 q 664 942 632 942 l 678 942 l 678 992 m 360 619 q 449 583 413 619 q 486 493 486 546 l 486 224 q 449 133 486 171 q 360 96 413 96 l 232 96 q 142 133 179 96 q 106 224 106 171 l 106 493 q 142 583 106 546 q 232 619 179 619 l 360 619 m 442 493 q 417 551 442 526 q 360 575 393 575 l 232 575 q 175 551 199 575 q 151 493 151 526 l 151 224 q 175 166 151 190 q 232 142 199 142 l 360 142 q 417 166 393 142 q 442 224 442 190 l 442 493 z "},"e":{"ha":822,"x_min":13,"x_max":726,"o":"m 294 365 l 250 365 l 250 492 q 287 581 250 544 q 376 618 324 618 l 504 618 q 594 581 557 618 q 631 492 631 544 q 594 402 631 439 q 504 365 557 365 l 294 365 m 294 411 l 504 411 q 561 435 538 411 q 585 492 585 458 q 561 549 585 525 q 504 574 538 574 l 376 574 q 319 549 343 574 q 294 492 294 525 l 294 411 m 504 140 q 561 165 538 140 q 585 222 585 189 l 726 222 q 711 140 726 179 l 710 136 l 708 135 l 707 131 q 704 125 704 125 l 703 121 l 701 121 l 700 117 l 700 115 q 692 101 694 107 q 682 89 686 93 l 679 85 l 675 81 q 668 72 674 78 q 657 61 664 65 q 653 57 654 58 q 650 53 653 56 l 646 50 l 642 47 l 642 46 q 638 43 639 44 q 633 40 636 42 l 632 40 l 629 38 l 628 38 l 624 35 q 619 32 621 32 l 618 31 l 614 29 l 614 28 l 606 24 l 604 24 l 600 21 l 596 19 l 596 18 l 590 17 q 588 15 589 15 q 586 14 588 15 l 585 14 l 581 13 q 571 10 572 10 l 569 8 l 565 7 l 564 7 l 560 6 l 558 6 l 554 4 l 553 4 l 550 4 l 549 3 l 543 3 q 538 1 542 1 l 533 1 l 531 0 l 528 0 l 526 0 l 521 0 l 519 0 l 515 -1 l 514 -1 l 510 -1 l 504 -1 l 500 -1 l 497 -1 l 494 -1 l 492 -1 l 489 -1 l 486 -1 l 483 -1 l 482 -1 l 481 -1 l 479 -1 l 478 -1 l 476 -1 l 475 -1 l 474 -1 l 472 -1 l 471 -1 l 469 -1 l 468 -1 l 467 -1 l 465 -1 l 464 -1 l 463 -1 l 461 -1 l 460 -1 l 458 -1 l 457 -1 l 456 -1 l 454 -1 l 453 -1 l 451 -1 l 450 -1 l 449 -1 l 447 -1 l 446 -1 l 444 -1 l 443 -1 l 442 -1 l 440 -1 l 439 -1 l 438 -1 l 436 -1 l 435 -1 l 433 -1 l 432 -1 l 431 -1 l 429 -1 l 428 -1 l 426 -1 l 425 -1 l 424 -1 l 422 -1 l 419 -1 l 418 -1 l 417 -1 l 415 -1 l 414 -1 l 413 -1 l 411 -1 l 408 -1 l 407 -1 l 406 -1 l 404 -1 l 403 -1 l 401 -1 l 400 -1 l 376 -1 q 288 16 328 -1 q 219 63 249 33 q 174 134 190 93 q 154 222 157 175 l 154 492 l 154 494 l 153 496 q 140 535 151 518 q 111 563 129 553 q 72 574 93 574 l 13 574 l 13 715 l 14 715 l 15 715 l 17 715 l 18 715 l 19 715 l 21 715 l 22 715 l 24 715 l 25 715 l 26 715 l 28 715 l 31 715 l 32 715 l 33 715 l 36 715 l 38 715 l 40 715 l 42 715 l 44 715 l 46 715 l 49 715 l 51 715 l 54 715 l 57 715 l 60 715 l 63 715 l 65 715 l 69 715 l 72 715 q 78 714 76 715 l 83 714 l 89 714 l 94 714 l 96 714 q 98 713 97 714 q 100 713 99 713 l 106 713 l 107 713 q 111 711 108 711 l 113 711 q 117 710 115 711 l 122 710 l 122 708 l 128 708 l 128 707 q 132 706 131 707 l 133 706 q 138 704 136 706 l 139 704 q 141 703 140 704 q 143 703 142 703 l 144 703 q 147 701 146 703 l 150 700 l 153 700 l 154 699 q 156 698 156 699 q 158 697 157 697 l 160 697 l 163 696 l 165 694 l 168 693 l 169 692 l 172 690 l 175 689 l 176 689 l 179 686 l 182 686 l 185 685 l 186 683 l 189 682 l 190 681 q 192 679 192 679 q 194 678 193 679 q 197 676 196 676 q 199 675 197 676 q 201 674 200 674 q 203 672 201 674 q 207 669 206 669 q 211 665 208 668 l 213 664 l 215 663 l 217 661 q 221 658 219 658 q 222 656 222 657 q 224 654 222 656 q 293 699 254 682 q 376 715 332 715 l 504 715 q 590 697 550 715 q 661 649 631 679 q 709 578 692 619 q 726 492 726 538 q 709 406 726 446 q 661 335 692 365 q 590 287 631 304 q 504 269 550 269 l 294 269 l 294 222 q 319 165 294 189 q 376 140 343 140 l 379 140 l 383 140 l 386 140 l 389 140 l 392 140 l 394 140 l 397 140 l 400 140 l 401 140 l 403 140 l 404 140 l 406 140 l 407 140 l 408 140 l 411 140 l 413 140 l 414 140 l 415 140 l 417 140 l 418 140 l 419 140 l 422 140 l 424 140 l 425 140 l 426 140 l 428 140 l 429 140 l 431 140 l 432 140 l 433 140 l 435 140 l 436 140 l 438 140 l 439 140 l 440 140 l 442 140 l 443 140 l 444 140 l 446 140 l 447 140 l 449 140 l 450 140 l 451 140 l 453 140 l 454 140 l 456 140 l 457 140 l 458 140 l 460 140 l 461 140 l 463 140 l 464 140 l 465 140 l 467 140 l 468 140 l 469 140 l 471 140 l 472 140 l 474 140 l 475 140 l 476 140 l 478 140 l 479 140 l 481 140 l 482 140 l 483 140 l 486 140 l 489 140 l 492 140 l 494 140 l 497 140 l 500 140 l 504 140 m 622 176 q 576 117 608 140 q 504 94 544 94 l 376 94 q 287 132 324 94 q 250 222 250 169 l 250 314 l 294 314 l 504 314 q 572 328 540 314 q 628 366 604 342 q 667 423 653 390 q 681 492 681 456 q 667 560 681 528 q 628 617 653 593 q 572 656 604 642 q 504 669 540 669 l 376 669 q 256 621 308 669 l 225 593 l 193 621 l 190 624 l 190 625 q 188 626 189 625 l 185 629 l 182 631 q 179 633 181 632 q 176 636 178 633 q 174 638 175 636 l 172 638 l 169 640 q 167 642 168 640 l 161 644 l 160 646 l 154 649 l 150 651 l 144 654 l 140 656 q 139 656 139 656 q 138 657 139 657 l 136 657 q 135 658 135 657 q 133 658 135 658 l 132 658 q 129 660 131 660 q 126 661 128 660 l 124 661 l 122 663 l 119 663 q 117 664 119 663 q 113 665 114 664 l 111 665 l 108 665 l 107 665 q 104 667 107 665 l 103 667 l 100 667 l 99 667 q 94 668 97 668 l 90 668 l 86 668 l 85 669 l 82 669 l 81 669 l 76 669 l 75 669 l 72 669 l 57 669 l 57 618 l 72 618 q 133 603 103 618 q 179 559 161 588 q 199 497 197 531 l 199 494 l 199 492 l 199 224 q 251 96 204 147 q 376 44 297 44 l 504 44 l 507 44 l 513 44 l 518 44 l 521 44 l 526 46 l 531 46 q 533 47 532 47 l 539 47 l 543 49 l 547 50 l 551 51 l 557 53 q 564 56 558 53 l 569 57 q 572 58 569 57 l 576 60 l 581 61 l 585 64 q 588 66 588 65 q 592 68 589 67 l 596 69 l 599 72 l 603 75 l 607 78 q 610 80 608 79 q 613 82 611 81 l 617 85 l 621 88 q 626 93 622 92 q 631 98 629 96 q 635 103 632 100 q 638 106 638 104 q 640 108 639 107 l 643 113 l 646 117 q 653 125 651 122 l 653 126 q 656 132 656 129 q 660 138 657 135 l 661 140 l 664 146 q 665 149 664 146 l 667 153 l 669 157 q 675 176 672 165 l 622 176 z "},"f":{"ha":593,"x_min":-39,"x_max":547,"o":"m 510 894 l 363 894 l 325 894 q 267 870 292 894 q 243 813 243 846 l 243 742 l 243 715 l 426 715 l 426 583 l 243 583 l 243 543 l 243 336 l 243 -1 l 172 -1 q 122 19 143 -1 q 101 69 101 40 l 101 517 l 101 543 l 101 571 l 101 813 l 101 815 l 101 817 q 89 856 100 839 q 60 885 78 874 q 21 894 40 894 l -39 894 l -39 1036 l -37 1036 l -36 1036 l -35 1036 l -33 1036 l -32 1036 l -31 1036 l -29 1036 l -28 1036 l -26 1036 l -25 1036 l -24 1036 l -21 1036 l -19 1036 l -18 1036 l -15 1036 l -14 1036 l -11 1036 l -10 1036 l -7 1036 l -6 1036 l -3 1036 l 0 1036 l 3 1036 l 6 1036 l 8 1036 l 11 1036 l 14 1036 l 17 1036 l 21 1036 l 26 1036 l 32 1036 q 35 1035 35 1036 q 38 1035 36 1035 l 43 1035 l 49 1035 q 54 1033 51 1033 q 60 1032 58 1033 l 61 1032 l 65 1032 l 65 1031 l 69 1031 l 71 1031 q 75 1029 72 1029 l 76 1029 q 81 1028 78 1028 l 82 1028 q 86 1026 83 1026 l 88 1025 q 92 1024 90 1025 l 93 1024 q 96 1022 94 1024 l 99 1022 q 101 1021 99 1021 l 103 1019 q 107 1018 106 1019 l 108 1018 l 111 1017 l 113 1015 l 117 1014 l 118 1014 l 121 1013 l 124 1011 l 125 1010 l 128 1008 l 131 1007 l 133 1006 l 135 1004 l 138 1003 l 139 1001 q 142 1000 142 1000 l 143 999 q 146 997 146 997 l 147 996 q 151 993 149 996 q 156 990 154 992 q 160 988 157 989 l 161 986 l 163 983 l 165 982 q 168 979 168 982 l 169 979 q 172 976 172 976 l 172 975 q 242 1019 203 1003 q 325 1036 281 1036 l 363 1036 l 364 1036 l 365 1036 l 367 1036 l 368 1036 l 369 1036 l 372 1036 l 375 1036 l 376 1036 l 379 1036 l 382 1036 l 385 1036 l 389 1036 l 476 1036 q 526 1015 506 1036 q 547 965 547 994 l 547 894 l 510 894 m 503 940 l 503 965 q 495 983 503 976 q 476 990 488 990 l 325 990 q 204 943 254 990 l 172 913 l 142 943 q 139 944 139 944 l 139 946 q 138 947 138 946 q 136 947 138 947 l 132 950 l 131 951 l 125 957 l 124 957 q 121 958 122 958 l 121 960 q 119 960 119 960 q 118 961 119 961 q 115 964 115 964 l 111 965 l 108 968 l 104 969 l 100 971 l 97 974 l 93 975 l 90 976 l 89 976 q 86 978 88 978 l 85 978 q 82 979 83 979 l 81 981 l 78 981 l 76 982 l 74 982 l 72 983 l 69 983 l 68 983 q 65 985 68 985 l 64 985 q 61 986 63 986 l 60 986 l 57 986 l 56 988 l 53 988 l 51 988 q 49 989 49 989 l 47 989 l 43 989 l 39 989 l 39 990 l 35 990 l 31 990 l 29 990 l 25 990 l 24 990 l 21 990 l 6 990 l 6 940 l 21 940 q 82 924 53 940 q 127 881 110 908 q 147 819 144 853 l 147 815 l 147 813 l 147 69 q 154 51 147 58 q 172 44 161 44 l 199 44 l 199 629 l 381 629 l 381 669 l 199 669 l 199 813 q 235 903 199 865 q 325 940 272 940 l 503 940 z "},"g":{"ha":814,"x_min":10,"x_max":724,"o":"m 724 572 l 664 572 q 625 563 640 572 q 595 535 607 553 q 582 496 583 518 l 582 493 l 582 492 l 582 353 l 582 221 l 582 194 l 582 -100 q 565 -186 582 -146 q 517 -257 547 -226 q 446 -305 486 -287 q 360 -322 406 -322 l 232 -322 q 146 -305 186 -322 q 75 -257 106 -287 q 27 -186 44 -226 q 10 -100 10 -146 l 151 -100 q 175 -158 151 -133 q 232 -182 199 -182 l 360 -182 q 417 -158 393 -182 q 442 -100 442 -133 l 442 14 q 360 -1 400 -1 l 232 -1 q 146 16 186 -1 q 75 64 106 33 q 27 135 44 94 q 10 221 10 175 l 10 492 q 27 578 10 538 q 75 649 44 618 q 146 697 106 679 q 232 714 186 714 l 360 714 q 443 698 404 714 q 511 654 482 682 l 513 654 l 515 657 l 519 661 l 521 663 l 524 664 l 525 665 q 533 671 528 668 l 533 672 q 535 673 535 672 q 538 674 536 674 l 538 675 q 540 676 539 676 q 542 678 540 676 q 546 681 543 678 l 547 681 l 550 682 l 551 683 l 554 685 l 556 686 l 560 688 l 561 689 l 564 690 l 567 692 l 568 693 l 571 694 l 574 694 l 576 696 l 578 697 q 582 699 581 697 l 583 699 q 585 699 585 699 q 586 700 585 700 l 588 701 q 592 703 590 701 l 593 703 q 597 704 596 703 l 599 704 q 601 705 600 704 q 603 706 601 706 l 604 706 q 606 706 606 706 q 608 707 607 707 q 610 708 610 707 q 614 708 611 708 q 616 709 615 708 q 618 710 617 710 l 619 710 q 624 711 622 710 l 625 711 l 629 711 l 631 711 q 635 713 632 713 l 636 713 l 640 713 l 642 713 q 644 713 643 713 q 647 714 644 714 l 653 714 l 658 714 l 664 714 l 667 714 l 671 714 l 674 714 l 676 714 l 679 714 l 682 714 l 685 714 l 688 714 l 689 714 l 692 714 l 694 714 l 696 714 l 699 714 l 700 714 l 703 714 l 704 714 l 706 714 l 707 714 l 710 714 l 711 714 l 713 714 l 714 714 l 715 714 l 717 714 l 718 714 l 719 714 l 721 714 l 722 714 l 724 714 l 724 572 m 678 668 l 664 668 l 660 668 l 656 668 l 654 668 l 650 668 l 646 668 q 642 667 643 668 l 638 667 l 636 667 l 633 667 l 632 665 l 629 665 l 628 665 q 625 664 626 665 l 624 664 l 619 664 l 619 663 l 615 663 q 613 661 614 661 l 611 661 q 607 660 610 660 q 604 658 606 658 l 603 657 l 600 657 l 599 656 l 596 656 l 592 653 l 588 651 l 585 650 l 582 649 l 578 647 l 575 644 l 571 642 l 569 642 q 567 640 569 640 l 567 639 q 564 638 565 639 l 563 638 q 560 635 563 638 q 557 633 558 633 q 554 631 556 632 l 553 629 l 549 626 q 546 624 546 624 l 543 621 l 511 592 l 481 621 q 360 668 429 668 l 232 668 q 163 654 196 668 q 106 616 131 640 q 68 560 82 592 q 54 492 54 528 l 54 221 q 68 152 54 185 q 106 96 82 119 q 163 58 131 72 q 232 44 196 44 l 360 44 q 393 47 376 44 q 425 56 410 49 l 486 81 l 486 -100 q 449 -190 486 -153 q 360 -226 413 -226 l 232 -226 q 160 -204 192 -226 q 114 -146 128 -182 l 61 -146 q 123 -240 76 -203 q 232 -278 169 -278 l 360 -278 q 428 -264 396 -278 q 485 -226 461 -250 q 524 -169 510 -201 q 538 -100 538 -136 l 538 492 l 538 494 l 538 497 q 556 559 539 531 q 603 603 574 588 q 664 618 633 618 l 678 618 l 678 668 m 360 618 q 449 581 413 618 q 486 492 486 544 l 486 221 q 449 131 486 168 q 360 94 413 94 l 232 94 q 142 131 179 94 q 106 221 106 168 l 106 492 q 142 581 106 544 q 232 618 179 618 l 360 618 m 442 492 q 417 549 442 525 q 360 572 393 572 l 232 572 q 175 549 199 572 q 151 492 151 525 l 151 221 q 175 164 151 188 q 232 140 199 140 l 360 140 q 417 164 393 140 q 442 221 442 188 l 442 353 l 442 492 z "},"h":{"ha":738,"x_min":-68,"x_max":646,"o":"m 424 714 q 510 697 469 714 q 581 649 550 679 q 628 578 611 618 q 646 492 646 538 l 646 336 l 646 69 q 625 19 646 40 q 575 -1 604 -1 l 504 -1 l 504 14 l 504 221 l 504 419 l 504 492 q 481 549 504 525 q 424 572 457 572 l 296 572 q 238 549 263 572 q 214 492 214 525 l 214 419 l 214 336 l 214 221 l 214 14 l 214 -1 l 143 -1 q 94 19 114 -1 q 74 69 74 40 l 74 221 l 74 336 l 74 492 q 74 503 74 499 q 75 515 74 508 l 74 515 l 74 813 l 74 815 l 72 817 q 60 856 71 839 q 31 883 49 874 q -8 894 13 894 l -68 894 l -68 1035 l -67 1035 l -65 1035 l -64 1035 l -62 1035 l -61 1035 l -60 1035 l -58 1035 l -57 1035 l -56 1035 l -54 1035 l -53 1035 l -50 1035 l -49 1035 l -47 1035 l -44 1035 l -43 1035 l -40 1035 l -39 1035 l -36 1035 l -35 1035 l -32 1035 l -29 1035 l -26 1035 l -24 1035 l -21 1035 l -18 1035 l -15 1035 l -11 1035 l -8 1035 l -3 1035 l 3 1035 l 8 1035 l 14 1035 l 15 1035 q 19 1033 17 1033 l 25 1033 l 26 1033 q 31 1032 28 1032 l 32 1032 q 36 1031 35 1032 q 42 1029 40 1031 q 47 1028 44 1029 q 51 1026 50 1028 l 53 1026 q 57 1025 56 1026 l 58 1025 q 60 1024 60 1025 q 63 1024 61 1024 l 64 1024 q 67 1022 67 1022 l 69 1021 q 72 1019 71 1021 l 74 1019 q 76 1019 75 1019 q 78 1018 76 1018 l 79 1018 l 82 1017 l 85 1015 l 88 1014 l 89 1013 l 92 1011 l 94 1010 l 96 1010 l 99 1007 l 101 1007 l 104 1006 l 106 1004 l 108 1001 l 110 1001 q 112 1000 111 1000 q 114 999 113 1000 q 116 997 115 997 q 118 996 117 997 q 120 994 119 994 q 122 993 121 994 q 126 990 125 990 q 131 986 128 989 l 132 985 l 135 983 l 136 982 q 140 979 139 979 l 140 978 q 143 975 140 978 q 195 903 176 944 q 214 813 214 861 l 214 699 q 296 714 256 714 l 424 714 m -6 990 l -8 990 l -24 990 l -24 939 l -8 939 q 53 924 22 939 q 99 880 81 908 q 118 818 117 851 l 118 815 l 118 813 l 118 561 l 125 561 l 119 511 q 118 501 118 506 q 118 492 118 496 l 118 69 q 125 51 118 58 q 143 44 132 44 l 169 44 l 169 492 q 206 581 169 544 q 296 618 243 618 l 424 618 q 513 581 476 618 q 550 492 550 544 l 550 44 l 575 44 q 594 51 586 44 q 601 69 601 58 l 600 492 q 586 560 600 528 q 548 616 572 592 q 492 654 524 640 q 424 668 460 668 l 296 668 q 263 666 279 668 q 231 657 246 664 l 169 632 l 169 813 q 155 883 169 850 q 113 942 140 917 q 110 944 110 944 q 107 947 107 947 l 104 950 l 101 951 q 99 953 100 953 q 96 956 97 954 l 96 957 q 94 958 94 957 q 92 958 93 958 l 89 961 q 86 963 86 963 l 82 965 l 79 967 l 75 969 l 71 971 l 69 972 l 65 974 l 61 975 l 60 976 q 57 978 58 976 l 56 978 q 53 979 54 979 l 51 979 q 49 981 50 981 l 47 981 q 44 982 46 982 l 43 982 q 40 983 42 983 l 39 983 q 36 985 38 983 l 35 985 l 32 985 l 31 986 l 28 986 l 26 986 q 25 987 25 986 q 24 988 25 988 l 22 988 l 19 988 l 18 988 q 14 989 17 989 l 10 989 l 6 989 q 1 990 4 990 l 0 990 l -4 990 l -6 990 z "},"i":{"ha":389,"x_min":4,"x_max":288,"o":"m 111 965 q 136 955 126 965 q 146 931 146 944 l 146 858 q 136 833 146 843 q 111 824 126 824 l 39 824 q 14 833 24 824 q 4 858 4 843 l 4 931 q 14 955 4 944 q 39 965 24 965 l 111 965 m 50 919 l 50 868 l 100 868 l 100 919 l 50 919 m 100 668 l 75 668 q 57 661 64 668 q 50 643 50 654 l 50 221 q 107 92 50 144 q 108 90 107 90 q 108 89 108 90 l 110 89 l 113 86 l 115 83 l 117 82 q 120 80 119 81 q 124 78 121 79 l 126 75 l 128 75 q 129 74 129 74 l 131 72 q 133 71 132 72 l 136 69 l 138 68 l 142 67 l 143 65 l 147 63 l 151 61 l 156 60 l 157 58 l 160 57 l 161 57 l 163 56 l 165 56 l 167 54 q 169 53 169 54 l 171 53 q 174 51 174 53 l 175 51 q 178 50 178 51 l 179 50 l 182 50 l 183 49 l 186 49 l 188 49 q 190 48 189 49 q 192 47 190 47 l 196 47 l 196 46 l 200 46 l 206 46 q 208 44 206 44 l 210 44 l 214 44 l 218 44 l 222 44 l 224 44 l 228 44 l 242 44 l 242 94 l 228 94 q 167 110 194 94 q 120 153 138 125 q 100 215 103 182 l 100 218 l 100 221 l 100 668 m 146 518 l 146 376 l 146 221 l 146 219 l 146 217 q 189 150 149 171 q 228 140 204 140 l 288 140 l 288 -1 l 286 -1 l 285 -1 l 283 -1 l 282 -1 l 281 -1 l 279 -1 l 278 -1 l 276 -1 l 274 -1 l 272 -1 l 271 -1 l 269 -1 l 268 -1 l 265 -1 l 264 -1 l 261 -1 l 260 -1 l 257 -1 l 256 -1 l 253 -1 l 250 -1 l 247 -1 l 246 -1 l 243 -1 l 240 -1 l 236 -1 l 233 -1 l 231 -1 l 228 -1 l 221 -1 l 215 -1 l 210 -1 q 208 -1 208 -1 q 204 0 207 0 l 199 0 q 193 1 196 0 l 189 1 l 188 1 q 183 3 186 3 l 182 3 q 180 3 181 3 q 178 4 179 4 l 176 4 q 174 5 175 4 q 172 6 174 6 l 171 6 q 169 6 169 6 q 167 7 168 7 l 165 7 q 163 8 164 7 q 161 8 163 8 l 160 8 q 156 10 158 10 q 151 11 154 11 l 150 13 q 148 13 149 13 q 146 14 147 14 l 144 14 q 142 15 143 15 l 140 17 l 136 18 l 135 18 l 132 19 l 131 21 l 128 22 l 125 24 l 122 25 l 119 26 l 118 28 l 115 29 l 113 31 l 110 32 l 108 32 q 106 35 108 35 q 103 36 104 36 q 101 38 103 36 l 100 39 q 99 40 99 39 q 97 40 99 40 l 96 42 q 93 44 94 43 q 89 47 92 44 l 86 49 l 85 50 l 83 51 l 79 56 q 77 57 78 57 q 75 58 76 57 q 24 131 43 89 q 4 221 4 172 l 4 376 l 4 518 l 4 643 q 25 693 4 672 q 75 714 46 714 l 146 714 l 146 518 z "},"j":{"ha":281,"x_min":-119,"x_max":164,"o":"m -60 -322 l -54 -322 l -53 -322 l -49 -322 l -47 -322 l -42 -322 l -37 -322 l -36 -322 q -31 -321 -35 -321 l -26 -321 l -25 -321 q -21 -319 -24 -319 l -19 -319 q -15 -318 -17 -319 l -14 -318 q -10 -317 -11 -318 l -8 -317 l -4 -317 l -4 -315 q 1 -314 0 -315 q 6 -312 4 -314 l 7 -312 q 9 -312 8 -312 q 11 -311 10 -311 l 13 -311 q 15 -310 14 -311 q 17 -310 15 -310 l 18 -308 q 22 -307 21 -308 l 24 -307 q 26 -306 25 -306 l 28 -306 l 32 -304 l 33 -303 l 36 -301 l 38 -300 l 40 -299 l 43 -297 l 46 -297 l 49 -294 l 50 -294 l 53 -293 l 54 -292 l 57 -289 l 58 -289 q 60 -287 60 -287 q 63 -286 61 -287 q 65 -285 64 -285 q 67 -283 65 -285 l 68 -283 q 71 -281 68 -283 q 75 -277 74 -278 q 79 -274 76 -276 l 82 -272 l 83 -271 l 85 -269 q 89 -267 88 -267 l 89 -265 q 93 -262 90 -265 q 144 -190 125 -232 q 164 -100 164 -149 l 164 96 l 164 197 l 164 643 q 143 693 164 672 q 93 714 122 714 l 22 714 l 22 197 l 22 96 l 22 -100 l 22 -103 l 22 -104 q -21 -171 19 -150 q -60 -182 -39 -182 l -119 -182 l -119 -322 l -118 -322 l -117 -322 l -115 -322 l -114 -322 l -112 -322 l -111 -322 l -110 -322 l -108 -322 l -107 -322 l -104 -322 l -103 -322 l -101 -322 l -100 -322 l -97 -322 l -96 -322 l -93 -322 l -92 -322 l -89 -322 l -87 -322 l -85 -322 l -82 -322 l -81 -322 l -78 -322 l -75 -322 l -72 -322 l -69 -322 l -65 -322 l -62 -322 l -60 -322 m 68 668 l 93 668 q 111 661 104 668 q 118 643 118 654 l 118 -100 q 103 -171 118 -137 q 61 -229 89 -204 q 58 -232 61 -232 q 56 -235 58 -235 l 53 -237 l 51 -239 q 48 -241 49 -240 q 44 -243 47 -242 q 42 -246 42 -246 l 40 -246 q 38 -249 40 -246 q 36 -249 36 -249 q 35 -250 36 -250 l 31 -253 l 29 -253 l 26 -256 l 22 -257 l 18 -260 l 14 -261 l 13 -262 l 8 -264 q 7 -265 7 -264 l 4 -265 l 3 -267 l 0 -267 q -3 -268 0 -268 q -6 -269 -6 -269 l -7 -269 q -10 -271 -10 -271 l -11 -271 q -15 -272 -14 -271 l -19 -272 l -19 -274 l -24 -274 q -26 -274 -25 -274 q -28 -275 -26 -275 l -29 -275 l -32 -275 q -34 -276 -33 -275 q -36 -276 -35 -276 l -37 -276 l -40 -276 l -42 -276 l -46 -276 q -50 -278 -47 -278 l -54 -278 l -60 -278 l -74 -278 l -74 -226 l -60 -226 q 1 -211 -26 -226 q 48 -167 31 -196 q 68 -107 65 -139 l 68 -103 l 68 -100 l 68 668 m 118 919 l 68 919 l 68 868 l 118 868 l 118 919 m 129 965 q 154 955 144 965 q 164 931 164 944 l 164 858 q 154 833 164 843 q 129 824 144 824 l 57 824 q 32 833 42 824 q 22 858 22 843 l 22 931 q 32 955 22 944 q 57 965 42 965 l 129 965 z "},"k":{"ha":725,"x_min":-72,"x_max":642,"o":"m 210 136 l 210 0 l 139 0 q 90 21 110 0 q 69 71 69 42 l 69 176 l 69 299 l 69 338 l 69 814 l 69 817 l 68 818 q 56 858 67 840 q 26 885 44 875 q -12 896 8 896 l -72 896 l -72 1038 l -71 1038 l -69 1038 l -68 1038 l -67 1038 l -65 1038 l -64 1038 l -62 1038 l -61 1038 l -60 1038 l -58 1038 l -57 1038 l -54 1038 l -53 1038 l -51 1038 l -49 1038 l -47 1038 l -44 1038 l -43 1038 l -40 1038 l -39 1038 l -36 1038 l -33 1038 l -31 1038 l -28 1038 l -25 1038 l -22 1038 l -19 1038 l -15 1038 l -12 1038 l -7 1038 q -1 1036 -6 1036 l 4 1036 l 10 1036 l 11 1036 q 13 1035 13 1036 q 15 1035 14 1035 l 21 1035 l 22 1035 q 26 1033 24 1033 l 28 1033 q 32 1032 31 1033 l 38 1032 l 38 1031 l 43 1031 l 43 1029 l 47 1029 l 49 1028 q 53 1026 51 1028 l 54 1026 q 58 1025 57 1026 l 60 1025 q 63 1024 63 1024 l 65 1024 q 68 1022 67 1022 l 69 1021 q 72 1020 71 1021 q 74 1019 72 1019 l 75 1019 l 78 1018 l 81 1017 l 83 1015 l 85 1014 l 88 1013 l 90 1011 l 92 1011 l 94 1008 l 97 1008 l 100 1007 l 101 1006 l 104 1004 l 106 1003 q 108 1001 107 1001 q 110 1000 108 1001 q 112 999 111 999 q 114 997 113 999 q 116 996 115 996 q 118 994 117 996 q 126 989 121 992 l 128 986 l 131 985 l 132 983 q 134 982 133 982 q 136 981 135 982 q 138 978 138 979 q 139 976 138 978 q 191 904 172 946 q 210 814 210 863 l 210 367 l 468 715 l 642 715 l 375 357 l 642 0 l 468 0 l 289 242 l 210 136 m 492 46 l 551 46 l 318 357 l 551 671 l 492 671 l 165 229 l 165 814 q 151 885 165 851 q 108 943 136 918 q 106 946 106 946 l 106 947 q 103 949 103 949 l 100 951 l 97 953 q 94 955 96 954 q 92 957 93 956 l 92 958 q 90 959 90 958 q 88 960 89 960 l 85 963 q 82 964 82 964 l 78 967 l 75 968 l 71 971 l 67 972 l 64 974 l 60 976 l 57 978 l 56 978 q 54 978 54 978 q 53 979 54 979 l 51 979 q 49 981 50 981 l 47 981 q 44 982 46 982 l 43 982 q 40 983 43 983 l 39 983 q 36 985 39 985 l 35 985 q 32 986 33 986 q 28 988 29 986 l 26 988 l 24 988 l 22 988 q 19 989 21 989 l 18 989 l 15 989 l 14 989 q 10 990 13 990 l 6 990 q 1 992 3 990 l -3 992 l -4 992 l -8 992 l -10 992 l -12 992 l -28 992 l -28 940 l -12 940 q 49 925 18 940 q 94 882 76 910 q 114 819 113 854 l 114 817 l 114 814 l 114 71 q 121 53 114 60 q 139 46 128 46 l 165 46 l 165 151 l 289 318 l 492 46 z "},"l":{"ha":308,"x_min":-93,"x_max":190,"o":"m -33 1038 l -28 1038 l -26 1038 q -22 1036 -25 1036 l -21 1036 l -15 1036 l -11 1036 l -10 1036 q -8 1035 -8 1036 q -4 1035 -7 1035 l 0 1035 l 1 1035 q 3 1034 3 1035 q 6 1033 4 1033 l 7 1033 q 11 1032 10 1033 l 13 1032 l 17 1032 l 18 1031 l 22 1031 l 22 1029 l 28 1029 l 28 1028 q 32 1026 31 1028 l 33 1026 q 38 1025 36 1026 l 39 1025 q 41 1024 40 1025 q 43 1024 42 1024 l 44 1024 q 49 1022 46 1022 l 50 1021 q 53 1019 51 1019 l 54 1019 l 58 1018 l 60 1017 l 63 1015 l 64 1014 l 67 1013 l 69 1011 l 72 1011 l 75 1008 l 76 1008 l 79 1007 l 81 1006 l 83 1004 l 85 1003 q 87 1001 86 1001 q 89 1000 88 1001 q 91 999 90 999 q 93 997 92 999 l 94 997 q 97 994 94 997 q 106 989 100 992 l 108 986 l 110 985 l 111 983 q 113 982 113 982 q 115 981 114 982 l 119 976 q 171 904 151 946 q 190 814 190 863 l 190 338 l 190 299 l 190 0 l 119 0 q 69 21 90 0 q 49 71 49 42 l 49 299 l 49 338 l 49 814 l 49 817 l 49 818 q 6 885 46 864 q -33 896 -12 896 l -93 896 l -93 1038 l -92 1038 l -90 1038 l -89 1038 l -87 1038 l -86 1038 l -85 1038 l -83 1038 l -82 1038 l -81 1038 l -78 1038 l -76 1038 l -75 1038 l -74 1038 l -71 1038 l -69 1038 l -67 1038 l -65 1038 l -62 1038 l -61 1038 l -58 1038 l -56 1038 l -54 1038 l -51 1038 l -49 1038 l -46 1038 l -43 1038 l -39 1038 l -36 1038 l -33 1038 m -47 992 l -47 940 l -33 940 q 28 925 0 940 q 74 882 57 910 q 94 819 92 854 l 94 817 l 94 814 l 94 71 q 101 53 94 60 q 119 46 108 46 l 144 46 l 144 814 q 130 885 144 851 q 88 943 115 918 q 86 946 86 946 l 85 946 q 82 949 85 946 l 79 951 l 78 953 q 74 955 75 954 q 71 957 74 956 l 71 958 q 69 959 69 958 q 68 960 69 960 q 66 961 67 961 q 64 963 65 961 q 63 963 63 963 q 61 964 63 964 l 58 967 l 54 968 l 50 971 l 47 972 l 43 974 l 39 976 l 38 978 l 35 978 l 33 979 l 32 979 q 29 981 29 981 l 26 981 q 24 982 26 982 q 21 983 21 983 l 19 983 q 17 985 17 985 l 15 985 q 13 985 14 985 q 11 986 13 986 q 7 988 8 986 l 3 988 l 1 988 q -1 989 1 989 l -3 989 l -6 989 q -11 990 -7 990 l -14 990 l -15 990 q -19 992 -18 990 l -24 992 l -28 992 l -29 992 l -33 992 l -47 992 z "},"m":{"ha":1244,"x_min":10,"x_max":1157,"o":"m 501 715 l 503 715 q 584 699 544 715 q 654 656 624 683 q 723 699 685 683 q 806 715 761 715 l 933 715 q 1020 698 979 715 q 1091 650 1061 681 q 1139 579 1121 619 q 1157 493 1157 539 l 1157 71 q 1136 21 1157 42 q 1086 0 1115 0 l 1015 0 l 1015 493 q 991 550 1015 526 q 933 574 967 574 l 806 574 q 749 550 772 574 q 725 493 725 526 l 725 0 l 583 0 l 583 493 q 560 549 583 528 q 504 574 538 571 q 440 574 472 575 q 375 574 407 574 q 317 550 342 574 q 293 493 293 526 l 293 0 l 222 0 q 172 21 193 0 q 151 71 151 42 l 151 493 q 128 550 151 526 q 71 574 104 574 l 10 574 l 10 715 q 43 716 26 715 q 76 715 60 717 q 155 699 115 715 q 222 656 194 682 q 292 699 253 683 q 375 715 331 715 l 501 715 m 56 671 l 56 619 l 71 619 q 160 583 124 619 q 197 493 197 546 l 197 71 q 204 53 197 60 q 222 46 211 46 l 247 46 l 247 493 q 285 583 247 546 q 375 619 322 619 l 504 619 l 506 619 l 507 619 q 594 581 560 615 q 629 493 628 546 l 629 46 l 679 46 l 679 493 q 716 583 679 546 q 806 619 753 619 l 933 619 q 1023 583 986 619 q 1060 493 1060 546 l 1060 46 l 1086 46 q 1104 53 1097 46 q 1111 71 1111 60 l 1111 493 q 1097 562 1111 529 q 1059 619 1083 594 q 1002 657 1035 643 q 933 671 969 671 l 806 671 q 685 622 738 671 l 654 593 l 622 622 q 567 658 599 646 q 503 671 536 671 l 501 671 l 375 671 q 253 622 306 671 l 222 593 l 192 622 q 138 657 168 643 q 76 671 107 671 l 75 671 l 56 671 z "},"n":{"ha":785,"x_min":-18,"x_max":696,"o":"m 696 338 l 696 222 l 696 0 l 625 0 q 575 21 596 0 q 554 71 554 42 l 554 222 l 554 338 l 554 421 l 554 493 q 531 550 554 526 q 474 574 507 574 l 346 574 q 288 550 313 574 q 264 493 264 526 l 264 421 l 264 338 l 264 222 l 264 196 l 264 15 l 264 0 l 193 0 q 144 21 164 0 q 124 71 124 42 l 124 196 l 124 222 l 124 338 l 124 493 l 124 494 l 122 497 q 110 537 121 519 q 81 564 99 554 q 42 574 65 574 l -18 574 l -18 715 l -17 715 l -15 715 l -14 715 l -12 715 l -11 715 l -10 715 l -8 715 l -7 715 l -6 715 l -4 715 l -3 715 l 0 715 l 1 715 l 3 715 l 6 715 l 7 715 l 10 715 l 11 715 l 14 715 l 15 715 l 18 715 l 21 715 l 24 715 l 26 715 l 29 715 l 32 715 l 35 715 l 39 715 l 42 715 l 47 715 l 53 715 l 58 715 q 64 714 63 715 l 65 714 l 69 714 q 75 713 74 714 l 76 713 l 81 713 l 82 713 q 86 711 83 711 q 90 710 89 711 q 92 710 90 710 q 97 708 94 710 q 101 707 100 708 l 103 707 q 105 706 104 707 q 107 706 106 706 l 108 706 q 110 705 110 706 q 113 704 111 704 l 114 704 q 117 703 117 703 l 119 701 q 122 700 121 701 l 124 700 q 128 699 125 699 l 129 697 l 132 696 l 135 696 l 138 694 l 139 693 l 142 692 l 144 690 l 146 689 l 149 688 l 151 686 l 154 685 l 156 685 l 158 682 l 160 682 q 162 681 161 681 q 164 679 163 681 q 166 678 165 678 q 168 676 167 678 q 172 674 171 674 q 176 670 175 671 q 181 667 178 669 l 182 665 l 185 664 l 186 663 l 190 658 q 193 656 190 658 q 263 699 224 683 q 346 715 301 715 l 474 715 q 560 698 519 715 q 631 650 600 681 q 678 579 661 619 q 696 493 696 539 l 696 338 m 26 671 l 26 619 l 42 619 q 103 604 72 619 q 149 560 131 589 q 168 499 167 532 l 168 496 l 168 493 l 168 71 q 175 53 168 60 q 193 46 182 46 l 219 46 l 219 493 q 256 583 219 546 q 346 619 293 619 l 474 619 q 563 583 526 619 q 600 493 600 546 l 600 71 q 607 53 600 60 q 625 46 614 46 l 650 46 l 650 493 q 636 562 650 529 q 598 619 622 594 q 542 657 574 643 q 474 671 510 671 l 346 671 q 225 622 278 671 l 193 593 l 163 622 l 160 625 q 157 628 157 628 l 154 631 l 151 632 q 149 634 150 633 q 146 636 147 635 l 144 636 q 144 638 144 638 q 143 639 143 638 l 142 639 q 139 640 140 640 l 139 642 q 136 643 136 643 l 131 646 l 128 647 l 124 650 l 119 653 l 115 654 l 114 654 l 110 657 l 107 657 l 106 658 q 103 660 104 658 l 101 660 q 99 661 100 660 q 94 663 96 661 l 93 663 q 90 664 92 663 l 89 664 l 86 664 l 86 665 l 82 665 l 81 665 q 78 667 79 667 l 76 667 l 74 667 l 72 668 l 69 668 l 68 668 l 65 668 l 64 669 l 60 669 l 56 669 l 51 669 l 50 669 q 47 671 47 671 l 46 671 l 42 671 l 26 671 z "},"o":{"ha":772,"x_min":-29,"x_max":685,"o":"m 589 496 l 589 493 l 589 224 q 579 174 589 197 q 552 133 569 150 q 512 106 535 115 q 463 96 489 96 l 335 96 q 285 106 308 96 q 245 133 263 115 q 218 174 228 150 q 208 224 208 197 l 208 386 l 208 493 q 238 575 208 539 q 241 578 240 576 q 243 581 242 579 l 244 582 q 263 597 251 589 l 264 599 l 265 599 l 267 600 l 268 601 l 269 601 l 271 603 l 272 603 l 272 604 l 275 604 l 275 606 l 276 606 l 278 606 l 279 607 l 281 607 l 282 608 l 283 608 l 285 610 l 286 610 l 289 611 l 290 611 l 292 613 l 293 613 l 294 614 l 296 614 l 297 614 l 299 614 l 300 615 l 303 615 l 304 617 l 306 617 l 307 617 l 308 617 l 310 617 l 310 618 l 315 618 l 317 618 l 318 619 l 321 619 l 322 619 l 325 619 l 328 619 l 331 619 l 332 619 l 333 619 l 335 619 l 463 619 l 465 619 l 468 619 l 472 619 l 475 619 l 478 619 l 482 618 l 485 618 l 488 617 l 490 617 l 493 615 l 497 615 l 500 614 l 503 613 l 506 613 l 508 611 l 511 610 l 514 608 l 517 607 l 519 606 l 522 604 l 525 603 l 528 601 l 531 600 l 533 599 l 535 596 l 538 594 l 540 593 l 543 590 l 544 589 l 547 586 l 550 585 l 551 582 l 554 581 l 556 578 l 558 576 l 560 574 l 561 571 l 564 568 l 565 567 l 567 564 l 569 561 l 571 558 l 572 556 l 574 553 l 575 550 l 576 547 l 578 544 l 579 542 l 581 539 l 581 536 l 582 533 l 583 531 l 585 528 l 585 525 l 586 522 l 586 518 l 588 515 l 588 513 l 588 510 l 589 506 l 589 503 l 589 500 l 589 496 m 543 493 q 519 551 543 526 q 463 575 496 575 l 335 575 q 277 551 301 575 q 253 493 253 526 l 253 386 l 253 224 q 277 165 253 189 q 335 142 301 142 l 463 142 q 519 165 496 142 q 543 224 543 189 l 543 493 m 463 715 q 549 698 508 715 q 619 650 589 681 q 667 579 650 619 q 685 493 685 539 l 685 224 q 667 137 685 178 q 619 65 650 96 q 549 17 589 35 q 463 0 508 0 l 335 0 q 249 17 289 0 q 178 65 208 35 q 130 137 147 96 q 113 224 113 178 l 113 386 l 113 422 l 113 493 l 113 496 l 111 497 q 99 537 110 519 q 69 564 88 554 q 31 575 51 575 l -29 575 l -29 715 l -28 715 l -26 715 l -25 715 l -24 715 l -22 715 l -21 715 l -19 715 l -18 715 l -17 715 l -15 715 l -14 715 l -11 715 l -10 715 l -8 715 l -6 715 l -4 715 l -1 715 l 0 715 l 3 715 l 4 715 l 7 715 l 10 715 l 13 715 l 15 715 l 18 715 l 21 715 l 24 715 l 28 715 l 31 715 l 36 715 l 42 715 l 47 715 l 53 715 l 54 715 q 58 714 56 714 l 64 714 l 65 714 q 69 713 67 713 l 71 713 q 73 712 72 713 q 75 711 74 711 q 81 710 79 711 q 86 708 83 710 q 90 707 89 708 l 92 707 q 96 706 94 707 l 97 706 q 99 705 99 706 q 101 704 100 704 l 103 704 q 106 703 104 704 l 108 701 q 111 700 110 701 l 113 700 q 115 699 114 700 q 117 699 115 699 l 118 697 l 121 697 l 124 696 l 126 694 l 128 693 l 131 692 l 133 690 l 135 690 l 138 688 l 140 688 l 143 686 l 144 685 l 147 682 l 149 682 q 151 681 150 681 q 153 679 151 681 q 155 678 154 678 q 157 676 156 678 q 159 675 158 675 q 161 674 160 675 q 165 670 164 671 q 169 667 167 669 l 171 665 l 174 664 l 175 663 q 179 660 178 660 l 179 658 q 182 656 179 658 q 251 699 213 683 q 335 715 290 715 l 463 715 m 639 497 l 639 503 l 639 507 l 639 511 l 638 515 l 638 519 l 636 525 l 636 529 l 635 533 l 633 538 l 633 542 l 632 546 l 631 550 l 629 554 l 628 558 l 626 558 l 626 561 l 625 561 l 625 563 l 624 565 l 622 569 l 619 574 l 618 578 l 617 581 l 614 585 l 611 589 l 610 592 l 607 596 l 604 599 l 601 603 l 599 606 l 596 608 l 593 613 l 590 615 l 588 618 l 585 621 l 582 624 l 578 628 l 575 629 l 571 632 l 568 635 l 565 638 l 561 640 l 557 643 l 554 644 l 550 647 l 546 649 l 543 651 l 539 653 l 535 654 l 531 657 l 526 658 l 524 660 l 519 661 l 515 663 l 511 664 l 507 665 l 501 665 l 497 667 l 493 668 l 489 668 l 485 669 l 481 669 l 476 669 l 471 671 l 467 671 l 463 671 l 335 671 l 331 671 l 326 671 l 325 671 l 321 669 l 317 669 l 313 669 l 311 669 l 308 668 l 307 668 l 304 668 l 303 668 l 300 667 l 299 667 l 294 665 l 293 665 l 292 665 l 290 665 l 289 665 l 288 664 l 286 664 l 283 663 l 282 663 l 278 661 l 275 660 l 274 660 l 269 658 l 267 657 l 265 657 l 263 654 l 261 654 l 258 653 l 254 651 l 251 649 l 250 649 l 247 647 l 246 646 l 243 644 l 239 643 l 239 642 l 236 640 l 235 639 l 232 638 l 229 635 l 228 635 l 225 632 l 222 631 l 222 629 l 219 628 l 218 626 l 215 625 l 215 624 l 213 622 l 213 621 q 197 603 204 613 q 182 585 189 594 q 151 622 168 607 l 149 625 q 146 628 146 628 l 143 631 l 140 632 q 138 634 139 633 q 135 636 136 635 l 135 638 q 132 639 132 638 l 131 639 l 128 642 q 125 643 126 642 l 119 646 l 117 649 l 114 650 l 110 651 l 108 653 l 104 654 l 100 656 l 99 657 q 96 658 97 657 l 94 658 q 92 660 94 658 l 90 660 q 89 660 89 660 q 88 661 89 661 q 85 662 86 661 q 83 663 85 663 l 82 663 q 79 664 82 663 l 78 664 q 75 665 78 664 l 71 665 l 69 667 l 67 667 l 65 667 q 64 667 64 667 q 63 668 64 668 l 61 668 l 58 668 l 57 668 q 55 669 56 668 q 53 669 54 669 l 49 669 l 44 669 q 42 670 43 669 q 40 671 42 671 l 39 671 l 36 671 l 35 671 l 31 671 l 15 671 l 15 619 l 31 619 q 92 604 61 619 q 137 560 119 589 q 157 499 154 532 l 157 496 l 157 493 l 157 386 l 157 224 q 171 154 157 186 q 209 98 185 122 q 266 60 233 74 q 335 46 299 46 l 463 46 l 467 46 l 471 46 l 476 46 l 481 46 l 485 47 l 489 47 l 490 47 l 493 49 l 497 49 l 501 50 l 507 51 l 511 53 l 515 54 l 519 56 l 524 57 l 526 58 l 531 60 l 535 61 l 539 63 l 543 65 l 546 67 l 550 69 l 554 71 l 557 74 l 561 76 l 565 78 l 568 81 l 571 83 l 575 86 l 578 89 l 582 92 l 585 94 l 588 97 l 590 101 l 593 104 l 596 107 l 599 110 l 601 114 l 604 117 l 607 121 l 610 124 l 611 128 l 614 131 l 617 135 l 618 139 l 619 143 l 622 146 l 624 150 l 625 154 l 628 158 l 628 160 l 629 161 l 629 163 l 631 167 l 632 171 l 633 175 l 633 179 l 635 183 l 636 188 l 636 192 l 638 196 l 638 197 l 638 200 l 639 206 l 639 210 l 639 214 l 639 218 l 640 224 l 640 493 l 639 497 z "},"p":{"ha":801,"x_min":-7,"x_max":707,"o":"m 485 619 q 574 583 538 619 q 611 493 611 546 l 611 222 q 574 133 611 169 q 485 96 538 96 l 357 96 q 267 133 304 96 q 231 222 231 169 l 231 493 q 267 583 231 546 q 357 619 304 619 l 485 619 m 565 493 q 542 550 565 526 q 485 574 518 574 l 357 574 q 299 550 324 574 q 275 493 275 526 l 275 222 q 299 165 275 189 q 357 140 324 140 l 485 140 q 542 165 518 140 q 565 222 565 189 l 565 493 m 485 715 q 571 698 531 715 q 642 650 611 681 q 690 579 672 619 q 707 493 707 539 l 707 222 q 690 136 707 176 q 642 65 672 96 q 571 17 611 35 q 485 0 531 0 l 357 0 q 275 15 317 0 l 275 -322 l 204 -322 q 155 -301 175 -322 q 135 -251 135 -281 l 135 196 l 135 218 l 135 222 l 135 493 l 135 494 l 133 497 q 121 536 132 518 q 92 564 110 554 q 53 574 76 574 l -7 574 l -7 715 l -6 715 l -4 715 l -3 715 l -1 715 l 0 715 l 1 715 l 3 715 l 4 715 l 6 715 l 7 715 l 8 715 l 11 715 l 13 715 l 14 715 l 17 715 l 18 715 l 21 715 l 22 715 l 25 715 l 26 715 l 29 715 l 32 715 l 35 715 l 38 715 l 40 715 l 43 715 l 46 715 l 50 715 l 53 715 l 58 715 l 64 715 l 69 715 q 75 714 72 714 l 76 714 l 81 714 q 84 713 83 714 q 86 713 85 713 l 88 713 l 92 713 l 93 711 l 97 711 q 103 710 100 710 q 105 709 104 710 q 108 708 106 708 q 110 708 110 708 q 113 707 111 707 l 114 707 q 118 706 115 706 l 119 706 q 124 704 121 704 l 125 703 q 128 701 128 703 l 131 701 q 132 701 132 701 q 133 700 132 700 l 135 700 q 139 699 136 699 l 140 697 l 143 696 l 146 694 l 149 693 l 150 693 l 153 692 l 156 690 l 157 689 l 160 688 l 163 686 l 165 685 l 167 683 l 169 682 l 171 681 q 173 680 172 681 q 175 679 174 679 l 175 678 q 177 677 176 678 q 179 676 178 676 l 179 675 q 181 674 181 675 q 183 674 182 674 l 183 672 q 188 669 186 671 q 192 667 189 668 l 193 665 l 196 664 l 197 661 q 201 658 199 661 l 204 656 q 274 699 235 683 q 357 715 313 715 l 485 715 m 663 493 q 649 561 663 529 q 610 617 635 593 q 553 656 586 642 q 485 669 521 669 l 357 669 q 236 622 288 669 l 204 593 l 174 622 q 171 625 174 622 q 168 628 171 625 l 167 628 l 163 632 q 160 634 161 633 q 157 636 158 635 q 154 638 156 638 l 153 639 q 151 640 151 639 q 150 640 151 640 q 147 643 147 643 l 142 646 l 140 647 l 136 649 l 132 651 l 131 651 l 125 654 l 121 656 q 118 657 119 657 l 117 658 l 114 658 l 113 660 l 110 660 l 110 661 l 106 661 l 104 663 l 101 663 l 100 664 l 97 664 q 93 665 96 665 l 92 665 q 90 666 90 665 q 89 667 90 667 l 88 667 l 85 667 l 83 667 q 81 668 82 668 l 79 668 l 76 668 l 75 668 q 73 669 74 668 q 71 669 72 669 l 67 669 l 63 669 l 61 669 l 58 669 l 57 669 l 53 669 l 38 669 l 38 619 l 53 619 q 114 604 83 619 q 160 560 142 588 q 179 499 178 532 l 179 496 l 179 493 l 179 -251 q 186 -269 179 -262 q 204 -276 193 -276 l 231 -276 l 231 82 l 292 57 q 357 44 322 44 l 485 44 q 553 58 521 44 q 610 97 586 72 q 649 153 635 121 q 663 222 663 186 l 663 493 z "},"q":{"ha":829,"x_min":10,"x_max":724,"o":"m 360 619 q 449 583 413 619 q 486 493 486 546 l 486 222 q 449 133 486 169 q 360 96 413 96 l 232 96 q 142 133 179 96 q 106 222 106 169 l 106 493 q 142 583 106 546 q 232 619 179 619 l 360 619 m 442 493 q 417 550 442 526 q 360 574 393 574 l 232 574 q 175 550 199 574 q 151 493 151 526 l 151 222 q 175 165 151 189 q 232 140 199 140 l 360 140 q 417 165 393 140 q 442 222 442 189 l 442 493 m 724 574 l 664 574 q 625 564 640 574 q 595 536 607 554 q 582 497 583 518 l 582 494 l 582 493 l 582 222 l 582 218 l 582 196 l 582 -251 q 561 -301 582 -281 q 511 -322 540 -322 l 442 -322 l 442 15 q 360 0 400 0 l 232 0 q 146 17 186 0 q 75 65 106 35 q 27 136 44 96 q 10 222 10 176 l 10 493 q 27 579 10 539 q 75 650 44 619 q 146 698 106 681 q 232 715 186 715 l 360 715 q 443 699 404 715 q 511 656 482 683 l 513 656 l 515 658 q 519 661 518 661 l 521 664 l 524 665 l 525 667 q 529 669 528 668 q 533 672 531 671 l 533 674 q 535 674 535 674 q 538 675 536 675 l 538 676 q 540 677 539 676 q 542 678 540 678 l 542 679 q 544 680 543 679 q 546 681 544 681 l 547 682 l 550 683 l 551 685 l 554 686 l 556 688 l 560 689 l 561 690 l 564 692 l 567 693 l 568 693 l 571 694 l 574 696 l 576 697 l 578 699 q 582 700 581 699 l 583 700 q 585 701 585 700 q 586 701 585 701 l 588 701 q 592 703 589 703 l 593 704 q 597 706 596 704 l 599 706 q 603 707 601 706 l 604 707 q 606 708 606 707 q 608 708 607 708 q 610 709 610 708 q 614 710 611 710 q 618 711 617 710 l 619 711 l 624 711 l 625 713 l 629 713 l 631 713 q 633 713 632 713 q 635 714 633 714 l 636 714 l 640 714 l 642 714 q 647 715 644 714 l 653 715 l 658 715 l 664 715 l 667 715 l 671 715 l 674 715 l 676 715 l 679 715 l 682 715 l 685 715 l 688 715 l 689 715 l 692 715 l 694 715 l 696 715 l 699 715 l 700 715 l 703 715 l 704 715 l 706 715 l 707 715 l 710 715 l 711 715 l 713 715 l 714 715 l 715 715 l 717 715 l 718 715 l 719 715 l 721 715 l 722 715 l 724 715 l 724 574 m 678 669 l 664 669 l 660 669 l 656 669 l 654 669 l 650 669 l 646 669 q 644 669 644 669 q 642 668 643 668 l 638 668 l 636 668 q 633 667 635 668 l 632 667 l 629 667 l 628 667 q 625 665 626 667 l 624 665 q 619 664 621 665 l 615 664 l 615 663 l 613 663 l 611 661 l 607 661 l 607 660 l 604 660 l 603 658 l 600 658 l 599 657 l 596 657 l 592 654 l 588 653 l 585 651 l 582 650 l 578 647 l 575 646 l 571 643 l 569 643 q 567 640 569 643 q 565 640 565 640 q 564 639 565 639 l 563 639 q 560 636 563 639 q 557 634 558 635 q 554 632 556 633 l 553 631 l 549 626 q 547 626 547 626 q 546 625 547 625 l 543 622 l 511 593 l 481 622 q 360 669 429 669 l 232 669 q 163 656 196 669 q 106 617 131 642 q 68 561 82 593 q 54 493 54 529 l 54 222 q 68 153 54 186 q 106 97 82 121 q 163 58 131 72 q 232 44 196 44 l 360 44 q 425 57 393 44 l 486 82 l 486 -276 l 511 -276 q 530 -269 522 -276 q 538 -251 538 -262 l 538 493 l 538 496 l 538 499 q 556 560 539 532 q 603 604 574 588 q 664 619 633 619 l 678 619 l 678 669 z "},"r":{"ha":651,"x_min":-33,"x_max":553,"o":"m 515 574 l 368 574 l 331 574 q 273 550 297 574 q 249 493 249 526 l 249 421 l 249 338 l 249 222 l 249 196 l 249 15 l 249 0 l 178 0 q 128 21 149 0 q 107 71 107 42 l 107 196 l 107 222 l 107 338 l 107 493 l 107 494 l 107 497 q 94 536 106 518 q 65 564 83 554 q 26 574 50 574 l -33 574 l -33 715 l -32 715 l -31 715 l -29 715 l -28 715 l -26 715 l -25 715 l -24 715 l -22 715 l -21 715 l -19 715 l -18 715 l -15 715 l -14 715 l -12 715 l -10 715 l -8 715 l -6 715 l -4 715 l -1 715 l 0 715 l 3 715 l 6 715 l 8 715 l 11 715 l 14 715 l 17 715 l 19 715 l 22 715 l 26 715 l 32 715 l 38 715 l 43 715 q 49 714 46 714 l 54 714 q 58 713 57 714 q 60 713 58 713 l 65 713 l 67 711 l 71 711 q 76 710 72 710 q 78 709 78 710 q 81 708 79 708 l 82 708 q 84 708 83 708 q 86 707 85 707 l 88 707 q 90 706 89 707 q 92 706 90 706 l 93 706 q 97 704 94 704 l 99 703 q 101 701 100 703 l 104 701 q 107 700 106 700 l 108 700 q 113 699 110 699 l 114 697 l 117 696 l 118 694 l 122 693 l 124 693 l 126 692 l 129 690 l 131 689 l 133 688 l 136 686 l 139 685 l 140 683 l 143 682 l 144 681 q 147 679 147 679 l 149 678 q 151 676 151 676 l 153 675 q 155 674 154 675 q 157 674 156 674 l 157 672 q 161 669 160 671 q 165 667 163 668 l 167 665 l 168 664 l 171 661 q 174 658 174 661 l 175 658 l 178 656 q 247 699 208 683 q 331 715 286 715 l 368 715 l 369 715 l 371 715 l 372 715 l 374 715 l 375 715 l 378 715 l 381 715 l 382 715 l 385 715 l 388 715 l 390 715 l 394 715 l 482 715 q 532 694 511 715 q 553 644 553 674 l 553 574 l 515 574 m 508 619 l 508 644 q 501 663 508 656 q 482 669 493 669 l 331 669 q 210 622 260 669 l 179 593 l 147 622 q 146 623 146 622 q 144 624 146 624 l 144 625 q 142 626 142 626 l 140 628 l 136 632 q 133 634 135 633 q 131 636 132 635 q 128 638 129 638 q 126 639 128 638 q 125 640 125 639 q 124 640 125 640 q 121 643 121 643 l 115 646 l 114 647 l 108 650 l 104 651 l 99 654 l 96 656 l 94 656 q 92 657 92 657 l 90 658 l 88 658 l 86 660 l 83 660 l 83 661 l 79 661 l 78 663 l 75 663 l 74 664 l 71 664 l 69 664 q 67 665 69 665 l 65 665 q 63 667 63 667 l 61 667 l 58 667 l 57 667 q 54 668 56 668 l 53 668 l 50 668 l 49 668 q 47 669 47 668 q 44 669 46 669 l 40 669 l 39 669 l 36 669 l 35 669 l 31 669 l 29 669 l 26 669 l 11 669 l 11 619 l 26 619 q 88 604 57 619 q 133 560 115 588 q 153 499 150 532 l 153 496 l 153 493 l 153 71 q 160 52 153 60 q 178 44 167 44 l 204 44 l 204 493 q 241 583 204 546 q 331 619 278 619 l 508 619 z "},"s":{"ha":760,"x_min":-46,"x_max":668,"o":"m 236 493 q 244 465 236 475 q 263 451 251 456 q 290 447 275 447 q 318 446 304 446 l 321 446 l 325 446 l 328 446 l 331 446 l 333 446 l 336 446 l 339 446 l 342 446 l 343 446 l 346 446 l 349 446 l 350 446 l 353 446 l 354 446 l 357 446 l 358 446 l 360 446 l 361 446 l 364 446 l 365 446 l 446 446 q 532 428 492 446 q 603 380 572 410 q 651 309 633 350 q 668 222 668 268 q 651 136 668 176 q 603 65 633 96 q 532 17 572 35 q 446 0 492 0 l 318 0 q 232 17 272 0 q 161 65 192 35 q 113 136 131 96 q 96 222 96 176 l 236 222 q 260 165 236 189 q 318 140 285 140 l 446 140 q 503 165 479 140 q 526 222 526 189 q 503 280 526 256 q 446 304 479 304 l 365 304 l 318 304 q 232 316 272 304 q 161 352 192 328 q 113 412 131 376 q 96 493 96 447 q 83 534 94 515 q 53 564 72 553 q 14 574 38 574 l -46 574 l -46 715 l 14 715 q 96 699 57 715 q 165 656 135 683 q 235 699 196 683 q 318 715 274 715 l 446 715 q 532 698 492 715 q 603 650 572 681 q 651 579 633 619 q 668 493 668 539 l 526 493 q 503 550 526 526 q 446 574 479 574 l 318 574 q 260 550 285 574 q 236 493 236 526 m 164 590 q 94 649 138 629 q -1 669 50 669 l -1 619 l 14 619 q 75 604 44 619 q 138 521 124 576 q 135 507 136 514 q 135 493 135 500 q 150 426 135 454 q 190 381 165 399 q 248 354 215 363 q 315 346 281 346 l 443 346 q 531 310 494 346 q 567 222 567 274 q 531 135 567 171 q 443 99 494 99 l 315 99 q 244 122 275 99 q 199 181 213 144 l 140 181 q 203 81 156 121 q 315 42 251 42 l 443 42 q 510 55 478 42 q 565 90 542 68 q 604 143 589 113 q 622 208 619 174 l 622 213 l 622 214 l 622 218 l 624 222 l 622 226 l 622 232 l 622 236 q 604 301 619 271 q 565 354 589 332 q 510 390 542 376 q 443 403 478 403 l 315 403 l 294 403 q 235 417 261 404 q 197 458 208 429 q 194 469 194 464 q 192 482 193 475 l 192 483 l 192 485 l 192 486 l 192 489 l 192 490 l 192 493 q 228 581 192 544 q 315 617 264 617 l 443 617 q 515 594 483 617 q 558 535 546 571 l 618 535 q 554 633 603 594 q 443 672 506 672 l 315 672 q 227 650 267 672 q 164 590 188 628 z "},"t":{"ha":454,"x_min":14,"x_max":364,"o":"m 156 224 q 179 165 156 189 q 236 142 203 142 l 364 142 l 364 0 l 236 0 q 150 17 190 0 q 79 65 110 35 q 31 137 49 96 q 14 224 14 178 l 14 288 l 14 493 l 14 825 q 35 875 14 854 q 85 896 56 896 l 156 896 l 156 700 q 236 715 194 715 l 304 715 l 304 575 l 236 575 q 179 551 203 575 q 156 493 156 526 l 156 288 l 156 224 m 260 671 l 236 671 q 172 658 203 671 l 110 633 l 110 850 l 85 850 q 67 843 74 850 q 60 825 60 836 l 60 224 q 74 154 60 186 q 111 98 88 122 q 167 60 135 74 q 236 46 200 46 l 318 46 l 318 96 l 236 96 q 187 106 210 96 q 147 133 164 115 q 119 174 129 150 q 110 224 110 197 l 110 493 q 119 540 110 518 q 143 578 128 561 q 180 606 158 596 q 225 619 201 617 l 236 619 l 260 619 l 260 671 z "},"u":{"ha":786,"x_min":7,"x_max":721,"o":"m 7 647 q 28 697 7 676 q 78 717 49 717 l 149 717 l 149 701 l 149 494 l 149 381 l 149 325 l 149 225 q 172 167 149 190 q 229 143 196 143 l 357 143 q 415 167 390 143 q 439 225 439 190 l 439 325 l 439 494 l 439 701 l 439 717 l 508 717 q 558 697 538 717 q 579 647 579 676 l 579 521 l 579 494 l 579 225 l 579 222 l 579 221 q 592 181 581 199 q 622 153 604 164 q 661 143 642 143 l 721 143 l 721 1 l 719 1 l 718 1 l 717 1 l 715 1 l 714 1 l 713 1 l 711 1 l 710 1 l 708 1 l 707 1 l 704 1 l 703 1 l 701 1 l 700 1 l 697 1 l 696 1 l 693 1 l 692 1 l 689 1 l 686 1 l 685 1 l 682 1 l 679 1 l 676 1 l 674 1 l 671 1 l 668 1 l 664 1 l 661 1 l 656 1 l 650 1 q 644 3 646 1 l 639 3 l 638 3 l 633 3 l 632 3 q 628 4 631 4 l 626 4 q 622 6 624 4 l 621 6 l 617 6 l 615 6 q 611 7 614 7 q 606 8 608 8 q 600 10 604 10 q 596 11 599 11 l 594 13 q 590 14 592 13 l 589 14 q 585 15 586 14 l 583 15 q 582 16 582 15 q 581 17 582 17 l 579 18 q 575 19 576 18 l 574 19 l 571 21 l 568 22 l 565 24 l 564 24 l 561 25 l 558 26 l 557 28 l 553 29 l 551 31 l 549 32 l 547 33 l 544 35 l 543 36 q 541 37 542 36 q 539 38 540 38 l 539 39 q 537 40 538 39 q 535 40 536 40 l 535 42 q 531 44 533 42 q 526 47 528 46 q 522 50 525 49 l 521 51 l 518 53 l 517 56 q 513 58 515 56 q 510 61 510 61 l 508 63 q 440 18 479 35 q 357 1 401 1 l 229 1 q 143 19 183 1 q 72 67 103 36 q 24 138 42 97 q 7 225 7 179 l 7 381 l 7 494 l 7 647 m 661 47 l 676 47 l 676 97 l 661 97 q 600 114 629 97 q 553 157 571 129 q 535 218 536 185 l 535 222 l 535 225 l 535 647 q 527 665 535 658 q 508 672 519 672 l 483 672 l 483 225 q 474 175 483 199 q 447 134 464 151 q 406 107 429 117 q 357 97 383 97 l 229 97 q 180 107 203 97 q 140 134 157 117 q 113 175 122 151 q 103 225 103 199 l 103 672 l 78 672 q 59 665 67 672 q 51 647 51 658 l 51 225 q 65 156 51 188 q 103 99 79 124 q 160 61 128 75 q 229 47 193 47 l 357 47 q 478 94 426 47 l 510 125 l 540 94 q 542 94 542 94 q 543 93 542 93 l 543 92 q 544 91 544 92 q 546 90 544 90 l 549 88 l 551 86 q 554 83 553 83 q 557 81 556 82 q 560 79 558 81 l 561 78 q 563 77 563 78 q 564 76 563 76 q 567 74 567 74 l 571 72 l 572 71 l 575 69 l 578 68 l 582 67 l 585 64 l 589 63 l 592 61 l 593 61 q 596 60 594 60 l 597 60 q 600 58 597 58 l 601 57 l 604 57 l 604 56 l 608 56 l 608 54 l 613 54 q 617 53 614 53 q 619 52 618 53 q 621 51 619 51 l 622 51 q 625 50 622 51 l 626 50 l 629 50 l 631 50 q 632 49 632 50 q 633 49 632 49 l 635 49 l 639 49 q 643 47 642 49 l 647 47 l 651 47 l 653 47 l 657 47 l 658 47 l 661 47 z "},"v":{"ha":786,"x_min":-31,"x_max":683,"o":"m 251 385 l 251 375 q 262 308 251 343 q 288 246 272 274 q 306 215 293 233 q 333 181 318 197 q 364 152 347 164 q 397 140 381 140 l 403 140 q 434 156 418 143 q 464 184 450 168 q 489 217 478 200 q 507 246 500 233 q 531 308 521 274 q 542 375 542 343 l 542 714 l 613 714 q 663 694 642 714 q 683 644 683 674 l 683 375 q 660 249 683 315 q 599 128 638 183 q 508 35 560 72 q 397 -1 456 -1 q 285 35 338 -1 q 194 128 233 72 q 133 249 156 183 q 111 375 111 315 l 111 385 l 111 421 l 111 492 l 111 494 l 110 496 q 97 535 108 518 q 68 563 86 553 q 29 574 50 574 l -31 574 l -31 714 l -29 714 l -28 714 l -26 714 l -25 714 l -24 714 l -22 714 l -21 714 l -19 714 l -18 714 l -17 714 l -15 714 l -12 714 l -11 714 l -10 714 l -7 714 l -6 714 l -3 714 l -1 714 l 1 714 l 3 714 l 6 714 l 8 714 l 11 714 l 14 714 l 17 714 l 19 714 l 22 714 l 26 714 l 29 714 l 35 714 l 40 714 l 46 714 l 51 714 l 53 714 q 57 713 54 713 l 63 713 l 64 713 q 68 711 65 711 l 69 711 q 72 710 71 711 q 74 710 72 710 q 79 708 78 710 q 85 707 82 708 q 89 706 88 707 l 90 706 q 94 704 93 706 l 96 704 q 98 703 97 704 q 100 703 99 703 l 101 703 q 104 701 104 701 l 107 700 q 110 699 108 700 l 111 699 q 113 698 113 699 q 115 697 114 697 l 117 696 l 119 696 l 122 694 l 125 693 l 126 692 l 129 690 l 132 689 l 133 689 l 136 686 l 139 686 l 142 685 l 143 683 l 146 681 l 147 681 q 149 679 149 679 q 151 678 150 679 q 153 676 153 676 q 156 675 154 676 q 158 674 157 674 q 160 672 158 674 q 164 669 163 669 q 168 665 165 668 l 169 664 l 172 663 l 174 661 q 178 658 176 658 l 178 657 q 181 654 178 657 q 233 582 214 624 q 251 492 251 540 l 251 385 m 156 385 l 156 375 q 169 285 156 331 q 203 203 183 240 q 236 148 217 176 q 281 97 256 119 q 335 59 306 74 q 397 44 364 44 q 408 44 403 44 q 419 46 414 44 q 507 90 467 54 q 576 175 547 126 q 622 277 606 224 q 639 375 639 331 l 639 644 q 631 662 639 654 q 613 669 624 669 l 588 669 l 588 375 q 576 298 588 338 q 547 225 564 258 q 523 185 538 206 q 491 145 508 164 q 453 113 474 126 q 411 96 433 100 q 403 95 407 96 q 397 94 400 94 q 351 108 374 94 q 308 140 328 121 q 273 183 289 160 q 247 225 257 206 q 219 298 231 258 q 207 375 207 338 l 207 385 l 207 492 q 192 563 207 529 q 150 621 178 596 l 147 624 q 144 626 144 626 l 142 629 l 139 631 q 136 633 138 632 q 133 635 135 633 l 133 636 q 131 638 131 636 l 129 638 l 126 640 q 124 642 124 642 l 118 644 l 115 647 l 113 649 l 108 650 l 107 651 l 103 653 l 99 654 l 97 656 q 94 657 96 656 l 93 657 q 90 658 92 658 l 89 658 q 88 659 88 658 q 86 660 88 660 q 84 660 85 660 q 82 661 83 661 l 81 661 q 78 663 79 663 l 76 663 q 74 664 75 663 l 69 664 l 68 665 l 65 665 l 64 665 q 63 666 63 665 q 61 667 63 667 l 60 667 l 57 667 l 56 667 q 53 667 54 667 q 51 668 53 668 l 47 668 l 43 668 q 41 669 42 668 q 39 669 40 669 l 38 669 l 35 669 l 33 669 l 29 669 l 14 669 l 14 618 l 29 618 q 90 603 60 618 q 136 559 118 588 q 156 497 154 531 l 156 494 l 156 492 l 156 385 z "},"w":{"ha":1204,"x_min":-50,"x_max":1097,"o":"m 594 715 l 665 715 l 665 644 l 665 375 q 676 309 665 343 q 701 247 686 275 q 719 217 707 235 q 747 181 732 199 q 778 152 761 164 q 810 140 794 140 l 815 140 q 847 156 831 143 q 876 184 863 168 q 901 217 890 200 q 919 246 913 233 q 945 308 935 274 q 956 375 956 343 l 956 715 l 1026 715 q 1076 694 1056 715 q 1097 644 1097 674 l 1097 375 q 1074 249 1097 315 q 1013 128 1051 183 q 922 35 974 72 q 810 -1 869 -1 q 690 42 744 -1 q 594 149 635 85 q 499 42 554 85 q 378 -1 443 -1 q 267 35 319 -1 q 176 128 215 72 q 115 249 138 183 q 92 375 92 315 l 92 385 l 92 421 l 92 492 l 92 494 l 92 496 q 79 535 90 518 q 50 563 68 553 q 11 574 31 574 l -50 574 l -50 715 l -49 715 l -47 715 l -46 715 l -44 715 l -43 715 l -42 715 l -40 715 l -37 715 l -36 715 l -35 715 l -33 715 l -32 715 l -29 715 l -28 715 l -26 715 l -24 715 l -22 715 l -19 715 l -18 715 l -15 715 l -12 715 l -10 715 l -7 715 l -6 715 l -1 715 l 1 715 l 4 715 l 7 715 l 11 715 q 13 715 13 715 q 17 714 14 714 l 22 714 l 28 714 l 33 714 q 36 713 35 714 q 39 713 38 713 l 44 713 q 49 711 46 711 l 50 711 q 54 710 53 711 l 56 710 q 60 708 58 710 l 61 708 l 65 708 l 67 707 q 71 706 69 707 l 72 706 q 76 704 75 706 l 78 704 q 80 703 79 704 q 82 703 81 703 q 84 702 83 703 q 86 701 85 701 l 88 700 l 92 700 l 93 699 q 94 698 94 699 q 96 697 94 697 l 99 697 l 101 696 l 103 694 l 106 693 l 108 692 l 111 690 l 113 689 l 115 689 l 118 686 l 119 686 l 122 685 l 125 683 l 128 682 l 129 681 l 132 678 l 133 678 q 136 675 133 678 l 138 675 l 140 672 l 142 672 l 149 665 l 151 664 l 153 663 l 156 661 q 158 658 156 658 l 163 654 q 214 582 194 624 q 233 492 233 540 l 233 385 l 233 375 q 244 309 233 343 q 269 247 254 275 q 288 217 275 235 q 315 181 300 199 q 346 152 329 164 q 378 140 363 140 l 383 140 q 415 156 400 143 q 444 184 431 168 q 469 217 458 200 q 488 246 481 233 q 513 308 503 274 q 524 375 524 343 l 524 644 l 524 715 l 594 715 m 138 385 l 138 375 q 151 286 138 331 q 183 203 164 242 q 217 148 197 176 q 263 97 238 119 q 317 59 288 74 q 378 44 346 44 q 433 56 407 44 q 481 86 458 68 q 523 127 504 104 q 556 172 542 150 l 594 233 l 633 172 q 666 127 647 150 q 707 86 685 104 q 756 56 729 68 q 810 44 782 44 q 832 46 825 44 q 919 90 879 54 q 989 175 960 126 q 1035 277 1018 224 q 1051 375 1051 331 l 1051 644 q 1044 663 1051 656 q 1026 669 1038 669 l 1000 669 l 1000 375 q 988 298 1000 338 q 960 225 976 258 q 935 185 950 206 q 903 146 921 164 q 866 114 886 128 q 824 96 846 100 q 817 95 821 96 q 810 94 813 94 q 763 108 786 94 q 721 140 740 121 q 686 183 701 160 q 661 225 671 206 q 631 298 643 258 q 619 375 619 338 l 619 669 l 569 669 l 569 375 q 558 298 569 338 q 528 225 546 258 q 503 185 518 206 q 472 146 489 164 q 434 114 454 128 q 392 96 414 100 q 385 95 389 96 q 378 94 382 94 q 331 108 354 94 q 289 140 308 121 q 254 183 269 160 q 229 225 239 206 q 199 298 211 258 q 188 375 188 338 l 188 385 l 188 492 q 173 563 188 529 q 132 621 158 596 l 129 624 l 128 624 q 125 626 128 624 l 122 629 l 121 631 q 117 633 118 632 q 114 635 117 633 l 114 636 q 113 637 113 636 q 111 638 113 638 q 108 640 108 640 l 107 640 q 104 642 106 642 l 100 644 l 96 647 l 94 649 l 90 650 l 88 651 l 85 653 l 81 654 l 79 656 q 76 657 76 656 l 75 657 q 74 658 74 657 q 72 658 74 658 l 71 658 q 68 660 69 660 l 67 660 q 65 660 65 660 q 64 661 65 661 l 63 661 q 60 663 60 663 l 58 663 q 56 664 56 664 l 54 664 l 51 664 l 50 665 l 47 665 l 46 665 q 43 667 43 667 l 42 667 l 38 667 q 33 668 36 668 l 29 668 l 28 668 l 25 668 l 24 668 q 19 669 22 669 l 17 669 l 15 669 l 11 669 l -4 669 l -4 618 l 11 618 q 71 603 43 618 q 117 559 100 588 q 138 497 135 531 l 138 494 l 138 492 l 138 385 z "},"x":{"ha":549,"x_min":3,"x_max":469,"o":"m 56 38 q 22 81 31 53 q 29 133 14 108 l 154 350 l 18 586 q 11 640 3 611 q 44 683 19 668 l 92 710 l 106 718 l 236 492 l 367 718 l 381 710 l 428 682 q 461 639 453 667 q 454 586 469 611 l 318 350 l 443 133 q 451 81 458 108 q 417 38 443 53 l 369 10 l 356 1 l 236 208 l 117 1 l 103 10 l 56 38 m 236 300 l 372 64 l 394 76 q 407 92 404 82 q 404 111 410 101 l 265 350 l 414 608 q 417 628 419 618 q 406 643 414 638 l 383 656 l 236 401 l 89 656 l 67 643 q 56 628 58 638 q 58 608 53 618 l 207 350 l 68 111 q 66 92 63 101 q 78 76 69 82 l 100 64 l 236 300 z "},"y":{"ha":685,"x_min":6,"x_max":611,"o":"m 54 -210 q 22 -167 29 -194 q 29 -114 14 -139 l 226 229 l 21 585 q 13 638 6 610 q 46 682 21 667 l 94 708 l 108 717 l 308 369 l 508 718 l 522 710 l 569 683 q 603 640 596 668 q 596 586 611 611 q 479 385 540 490 q 356 171 418 279 q 232 -43 293 63 q 115 -244 171 -149 l 103 -237 l 54 -210 m 100 -183 q 328 213 214 15 q 557 608 442 410 q 560 628 563 618 q 547 643 557 638 l 525 656 l 308 279 l 92 654 l 69 642 q 57 626 60 636 q 60 607 54 617 l 279 229 l 68 -136 q 65 -155 63 -144 q 78 -171 68 -165 l 100 -183 z "},"z":{"ha":568,"x_min":33,"x_max":461,"o":"m 461 142 l 461 71 q 443 21 461 42 q 399 0 425 0 l 47 0 l 33 0 l 33 122 l 293 575 l 33 575 l 33 646 q 51 696 33 675 q 93 717 68 717 l 375 717 l 429 717 l 461 717 l 461 583 l 207 142 l 461 142 m 417 671 l 93 671 q 82 661 86 671 q 78 646 78 651 l 78 619 l 372 619 l 78 111 l 78 46 l 399 46 q 412 55 407 46 q 417 71 417 64 l 417 96 l 129 96 l 417 594 l 417 671 z "},"C":{"ha":826,"x_min":6,"x_max":719,"o":"m 649 896 q 699 875 678 896 q 719 825 719 854 l 719 754 l 611 754 l 429 754 l 369 754 q 319 737 342 754 q 290 693 297 719 l 290 690 l 290 689 l 289 688 l 289 686 l 289 685 l 289 683 l 289 681 l 289 679 l 288 676 l 288 675 l 288 672 l 288 283 l 288 222 q 312 165 288 189 q 369 142 336 142 l 382 142 l 611 142 l 719 142 l 719 71 q 699 21 719 42 q 649 0 678 0 l 611 0 l 382 0 l 369 0 q 283 17 324 0 q 213 65 243 35 q 165 136 182 96 q 147 222 147 176 l 147 283 l 147 672 q 124 729 147 706 q 67 753 100 753 l 6 753 l 6 896 l 65 896 q 149 879 110 896 q 217 835 188 863 q 306 886 256 872 q 309 887 308 886 q 311 888 310 888 q 313 888 313 888 q 317 889 314 889 q 319 890 318 889 q 321 890 319 890 q 326 891 324 890 q 332 892 329 892 l 335 893 l 338 893 l 340 893 l 342 893 l 344 894 l 346 894 l 349 894 l 351 894 l 354 894 l 356 894 l 360 894 l 361 896 l 365 896 l 367 896 l 369 896 l 382 896 l 611 896 l 649 896 m 50 799 l 67 799 q 156 762 119 799 q 192 672 192 725 l 192 222 q 206 153 192 186 q 244 97 219 121 q 301 58 268 72 q 369 44 333 44 l 649 44 q 667 52 660 44 q 675 71 675 60 l 675 96 l 369 96 q 280 133 317 96 q 243 222 243 169 l 243 674 l 243 676 l 243 679 l 243 683 l 243 686 l 244 689 l 244 692 l 244 696 l 246 699 l 246 701 q 247 704 246 703 q 292 772 258 746 q 369 799 326 799 l 675 799 l 675 825 q 667 843 675 836 q 649 850 660 850 l 369 850 l 367 850 l 364 850 l 363 850 l 358 850 l 354 850 l 353 849 l 351 849 l 349 849 l 344 849 l 339 847 q 335 847 336 847 q 332 846 333 846 l 331 846 q 328 844 331 846 l 326 844 l 324 844 l 322 843 l 319 843 q 249 801 276 829 l 217 772 l 186 801 q 65 850 135 850 l 50 850 l 50 799 z "},"A":{"ha":825,"x_min":3,"x_max":717,"o":"m 240 672 q 277 762 240 725 q 367 799 314 799 l 621 799 l 621 472 l 240 472 l 240 672 m 367 754 q 309 730 333 754 q 285 672 285 706 l 285 544 l 285 518 l 575 518 l 575 754 l 426 754 l 367 754 m 717 382 l 717 213 l 717 71 q 696 21 717 42 q 646 0 675 0 l 575 0 l 575 142 l 575 376 l 285 376 l 285 336 l 285 222 l 285 113 l 285 96 l 285 0 l 214 0 q 165 21 185 0 q 144 71 144 42 l 144 96 l 144 113 l 144 213 l 144 222 l 144 336 l 144 544 l 144 661 l 144 672 q 121 729 144 706 q 64 753 97 753 l 3 753 l 3 896 l 63 896 q 146 879 107 896 q 214 835 185 863 q 283 879 244 863 q 367 896 322 896 l 397 896 l 575 896 l 646 896 q 696 875 675 896 q 717 825 717 854 l 717 754 l 717 544 l 717 382 m 646 44 q 665 52 657 44 q 672 71 672 60 l 671 825 q 664 843 671 836 q 646 850 657 850 l 367 850 q 246 801 297 850 l 214 772 l 183 801 q 63 850 132 850 l 47 850 l 47 799 l 64 799 q 153 762 117 799 q 189 672 189 725 l 189 71 q 196 52 189 60 q 214 44 203 44 l 240 44 l 240 422 l 621 422 l 621 44 l 646 44 z "},"B":{"ha":794,"x_min":7,"x_max":721,"o":"m 499 422 q 588 385 551 422 q 625 296 625 349 l 625 222 q 588 133 625 169 q 499 96 551 96 l 244 96 l 244 422 l 499 422 m 579 296 q 556 353 579 329 q 499 376 532 376 l 289 376 l 289 374 l 289 367 l 289 360 l 289 353 l 289 346 l 289 339 l 289 332 l 289 324 l 289 317 l 289 310 l 289 301 l 289 294 l 289 286 l 289 278 l 289 269 l 289 261 l 289 253 l 289 244 l 289 236 l 289 226 l 289 217 l 289 208 l 289 199 l 289 188 l 289 178 l 289 163 l 289 142 l 499 142 q 556 165 532 142 q 579 222 579 189 l 579 296 m 721 600 q 705 517 721 556 q 661 447 689 478 q 705 378 689 417 q 721 296 721 340 l 721 222 q 703 136 721 176 q 656 65 686 96 q 585 17 625 35 q 499 0 544 0 l 274 0 q 185 36 221 0 q 149 125 149 72 l 149 163 l 149 178 l 149 188 l 149 197 l 149 207 l 149 217 l 149 225 l 149 235 l 149 243 l 149 251 l 149 260 l 149 268 l 149 276 l 149 285 l 149 292 l 149 300 l 149 307 l 149 314 l 149 321 l 149 328 l 149 335 l 149 342 l 149 349 l 149 356 l 149 363 l 149 369 l 149 375 l 149 382 l 149 388 l 149 393 l 149 503 l 149 672 q 125 729 149 706 q 68 753 101 753 l 7 753 l 7 896 l 67 896 q 150 879 111 896 q 218 835 189 863 q 288 879 249 863 q 371 896 326 896 l 400 896 l 401 896 l 499 896 q 585 878 544 896 q 656 830 625 860 q 703 759 686 800 q 721 672 721 718 l 721 600 m 675 672 q 661 741 675 708 q 623 798 647 774 q 567 836 599 822 q 499 850 535 850 l 371 850 q 250 801 301 850 l 218 772 l 188 801 q 67 850 136 850 l 51 850 l 51 799 l 68 799 q 157 762 121 799 q 193 672 193 725 l 193 125 q 217 69 193 93 q 274 44 240 44 l 499 44 q 567 58 535 44 q 623 97 599 72 q 661 153 647 121 q 675 222 675 186 l 675 296 q 628 417 675 365 l 599 447 l 628 479 q 675 600 675 529 l 675 672 m 499 799 q 588 762 551 799 q 625 672 625 725 l 625 600 q 588 510 625 547 q 499 472 551 472 l 244 472 l 244 672 q 281 762 244 725 q 371 799 318 799 l 499 799 m 579 672 q 556 730 579 706 q 499 754 532 754 l 431 754 l 371 754 q 313 730 338 754 q 289 672 289 706 l 289 663 l 289 653 l 289 643 l 289 633 l 289 624 l 289 615 l 289 606 l 289 597 l 289 589 l 289 581 l 289 572 l 289 564 l 289 557 l 289 549 l 289 542 l 289 533 l 289 526 l 289 519 l 289 518 l 499 518 q 556 542 532 518 q 579 600 579 567 l 579 672 z "}}}
